<mxfile host="Electron" modified="2024-05-22T05:27:13.600Z" agent="Mozilla/5.0 (X11; Linux x86_64) AppleWebKit/537.36 (KHTML, like Gecko) draw.io/24.4.0 Chrome/120.0.6099.109 Electron/28.1.0 Safari/537.36" etag="hrPUg7xwAE5cIqbV7dbp" version="24.4.0" type="device">
  <diagram name="Page-1" id="2V1QTN6fmhsx376CR6by">
    <mxGraphModel dx="545" dy="337" grid="1" gridSize="10" guides="1" tooltips="1" connect="1" arrows="1" fold="1" page="1" pageScale="1" pageWidth="1654" pageHeight="1169" math="0" shadow="0">
      <root>
        <mxCell id="0" />
        <mxCell id="1" parent="0" />
        <mxCell id="Hx75gRmfLcT_vYEecObj-1" value="" style="shape=image;verticalLabelPosition=bottom;labelBackgroundColor=default;verticalAlign=top;aspect=fixed;imageAspect=0;image=data:image/png,iVBORw0KGgoAAAANSUhEUgAAA+IAAABsCAYAAADuSAh+AAAABHNCSVQICAgIfAhkiAAAIABJREFUeF7t3QeQHOd5JuB3ZjbnnDN2sQtggUUgAgEQkSDBLJISLZLSiVa+8pVLV1aVr1yX6qrsO11JZftcOluS5TuTlkWR4lEMAgmKJECCRFgkIm/C5pxznun7emZ2scDOTtid6e2ZeadqS8JMT/f/P939cb7+k2HzroMK+KIABShAAQpQgAIUoAAFKEABClBAEwGjJkfhQShAAQpQgAIUoAAFKEABClCAAhSwCjAR54VAAQpQgAIUoAAFKEABClCAAhTQUICJuIbYPBQFKEABClCAAhSgAAUoQAEKUICJOK8BClCAAhSgAAUoQAEKUIACFKCAhgJMxDXE5qEoQAEKUIACFKAABShAAQpQgAJMxHkNUIACFKAABShAAQpQgAIUoAAFNBRgIq4hNg9FAQpQgAIUoAAFKEABClCAAhRgIs5rgAIUoAAFKEABClCAAhSgAAUooKEAE3ENsXkoClCAAhSgAAUoQAEKUIACFKAAE3FeAxSgAAUoQAEKUIACFKAABShAAQ0FmIhriM1DUYACFKAABShAAQpQgAIUoAAFmIjzGqAABShAAQpQgAIUoAAFKEABCmgowERcQ2weigIUoAAFKEABClCAAhSgAAUowESc1wAFKEABClCAAhSgAAUoQAEKUEBDASbiGmLzUBSgAAUoQAEKUIACFKAABShAASbivAYoQAEKUIACFKAABShAAQpQgAIaCjAR1xCbh6IABShAAQpQgAIUoAAFKEABCjAR5zVAAQpQgAIUoAAFKEABClCAAhTQUICJuIbYPBQFKEABClCAAhSgAAUoQAEKUICJOK8BClCAAhSgAAUoQAEKUIACFKCAhgJMxDXE5qEoQAEKUIACFKAABShAAQpQgAJMxHkNUIACFKAABShAAQpQgAIUoAAFNBRgIq4hNg9FAQpQgAIUoAAFKEABClCAAhRgIs5rgAIUoAAFKEABClCAAhSgAAUooKEAE3ENsXkoClCAAhSgAAUoQAEKUIACFKAAE3FeAxSgAAUoQAEKUIACFKAABShAAQ0FmIhriM1DUYACFKAABShAAQpQgAIUoAAFmIjzGqAABShAAQpQgAIUoAAFKEABCmgowERcQ2weigIUoAAFKEABClCAAhSgAAUowESc1wAFKEABClCAAhSgAAUoQAEKUEBDASbiGmLzUBSgAAUoQAEKUIACFKAABShAASbivAYoQAEKUIACFKAABShAAQpQgAIaCjAR1xCbh6IABShAAQpQgAIUoAAFKEABCjAR5zVAAQpQgAIUoAAFKEABClCAAhTQUICJuIbYPBQFKEABClCAAhSgAAUoQAEKUICJOK8BClCAAhSgAAUoQAEKUIACFKCAhgJMxDXE5qEoQAEKUIACFKAABShAAQpQgAJMxHkNUIACFKAABShAAQpQgAIUoAAFNBRgIq4hNg9FAQpQgAIUoAAFKEABClCAAhRgIs5rgAIUoAAFKEABClCAAhSgAAUooKFAiIbHCqxDpe5Eybf3IsrkoFqztWj6ydsYnHHwGd+iAAUo4G2B5B0o+e4DS8SjOjT99VsYnPL2QXW2P8ZknZ0QFsevBBhDfHO6GJd84xpMe+W9GdBnO6ATccOah7D+qxsRYgAst97B9TdqoKin05CI1Je+gaxsyaLNXej4x1+hu8f6CV+rJpCEB4/+AM+kzj3ZUDDe+Cr+46nrmFytMhnX44+fewHbQ+UCWtZrFtWVP8H/qh62XXeO9hGSjA3Fu7A7vxiFCYmIlYt1ZnoY3f0NuNZQiVMNrRhe7UvTEI38/Ptwf34pipNTkRwRgVDMYnxyAB299bjWeAFnWjox5qyckVvx/SefwaYwAxRLJ9479lO8O2BxJLK67/lLOVdXiUcPCgHG5ICOyf5yDTMm+8uZ0qicQRqXNNJdyWGYcy1PL6AT8eWReP4tZaYLA6drMTWXiFj6MWH2fD/B/A1DVAk2JC0cKWFARPpaFIdcx/XZwJQJT9yJr+97BFviQrEw1TdFJCEvS/4yt2D/2jN45dP3cW18dZLWkNhNeG7fk9idGAnjXc8jwhATnY4S9S9vB470nMG/nDq+dDknruFEwyGUlybCaEzDnrK1+PBM1eo9ZFnqkvKXct5b/vFW9H3yGYbmbqGwDCTtKkZ4kA4+Yky+9wLx/N+MyXfMAjIm33tJ6DWG+GtMvtdX/s245ADFw7eCMS5Br/emh+eOmzsWYCLu2MWzd2d6MPj5OYysTq7kWVl1unV0ZikKrZmeAouiwGAwwhhRjPKUEFzvXK1M3AKzZRYzZvdbxNVym4xGW2It9Zg1mx22hhtj78M3Dz+OjZH2TEm2nZkZQr88wYmMSkBsqMlqEJO6G98+bMTfH38XVdPanjxDdAVeOvIstkRLWayHlnMzO4qe4QGMWcKREJeCxDC1nCbEpu3Btx8Mxc+Ov42bDrtAz6CmqhLNxQ+hwGREXP5u7LhajU+dNqNrW1/b0fylnPfYTLSj/3T7nTdjNiFmh34TcUNUHPK25qKwNAVpWTGIjQlDiEnugZEx9Lf0oOliPW5eHb7zcNPTS4Ex2VOxRdszJgd6TPaXGOKnMXnRHSVvMC45UvHovWCLS1YcP/vvu0cnlBuDiTgvAh0IRKAsJx/WHuCWYVxt7seG/EL5dyzWZ2fB2NmMVXnGYanCy6/9V7zsrpApG08c/S6OWlv2FZiHK3G8cczBt5Owd+cjKLcn4Yq5B5XnX8cbdW0YVXtVmBKxbv1T+DebihEvDydCE3bia1tr8JdnazDhYG++eSsOO7Y/js32JFyxDEli9CZevVmLvrneHsYYFBU/ihe3bUKmdKkPjd+OF9VySkv3uINCKcMXcaJtH76RJ63roQXS2p+Fzy+3QW+dR/ylnA6I9f+WKQp5hyuw51AmEsIXP+AKT4hDpvpXXohN9bU48coNNA85G/Og/yr7ZwkZk4MhJvvLtcmY7C9nytflDLa45GtP7l8PAkHacVEP9CzDvEBIIcrTw6ytrpaZBlTeqEGb9be3EYlZa5G9+Pe6DvFMyF73BA4nhljroVj6cKryI9Q5aMwPz9qHh9Mj7K3mE7h5/p/xSq09CVdrZh7ArWu/ws9udmF2zqHoEB6I0w7CmLgdR7Kj5AyolZlB89VX8LNrC5Jw9X3LKOprXsffnb0BW65kRELhAexdspxj+OLWZfRZn6qYkL5mN8rD1P+vt5e/lFNvbi7KE5OGnX9yCI8czbIl4YoFUz29aDhXh0vv30Dl8Wpcv9yDoQkFivQGiVqzFg//283Ii3GxX37sfQHG5CCJyd6/dHyzR8Zk37j62V6DLC752dlhcZcpwER8mXD8mvcEQlNLURpma0We6alD7eBtVI/Y2klNcWuxYcnEzntlWOmejHG78EflOZC5yCRxNaO37h280+moj3YEyovLkWC/88yDZ/BW3YCDFv8ZNF7/EBcnbX0BDKYs3L8m25YYr7Swbnw/I6cM6fYyWqZv4nhVh0zP5uilYLDxA3zYM2vtgq+Wc0dh5pLlnOk5i097Z6zbGiPW41BR4l3j4x0dYTXe85dyamdjwt7cKLyYF4XnM0KR4OmBI1Ow63v3Y0thuFwbCiabG3Dqp+/jn//qE7z/6hWcO16Fi+9fx6mXP8Wv//IEPr8yBrNiQEh6IQ48nY1IT4/H7VckwJgcPDF5RReKR19eWQxhTPYIOyA3Dq64pOUpXNm9qWVJA/FYOuuaHosHHvwhns+UYimzuHHmR/jpbbWTayhSs7bhgaINKEvNQGpkOEzKNEZGu9DYeRNnq87j2ojGA2i9dTUYopCRLhOVZRZhTUomsuISERceLt2yLZieGkbvUDvq2m/g3G3pomlPyrx1aHf3Y0g4gP/w2BHkevTYxoKR2pfxF2drXXQ9NqEgpxix9gS2paMB45YRVHWN4kh8vEwQlo4NWYk4PtTvcKy1u3Xw6XYyC/+e7QdRZO1bL+Ooxy7htct1jruRhxRhU4a9NVxkWhqu2Fv/HZRwphaVLaPYvjZOkhcTUiQ5zv6iFS0a9NTNkdnRbadbutirD0ecLcWn9ONaawe+lJYrpZSW7qxipF5tR5ejcip9cr/ewsOpMobZEIai0l0orHkP9asy9sCB+dxb/lJOJ1Xw6keGEDy6JhaHZVGD2dFRXOiawaCj8+vooIYIFD+3A5tzpLeIPKQaOH8Bx16X1QAcP9mBMjaAay+fgvmbB7FvQziiKtah/KN2nG9394COCuHBe4zJjMlLXWqBGJM9uDVWtOlKYoh64GCPyYxLwRWXVnSzefjlld6bHh6Om98toK9EXGZTzplrKlSG0TU8CUNEIR7e/WU8kpVgG0M8X/5IJCYUyF8ess3NuHGpxUGror5Pd2j6Q/izfXuQG2Hrznx3aU2IjExGrvqXUY795d04f/E1vFrXCUftrPquqZPSGTIl0VYTTXkpvajuVJf6sqCxvRGTJRWIkonA8rKLEXerEkNOdrN6HxmQWPQYnsiUcc9qIWQs9bnzH+DGEs+FjIkFKJxbDs0yiLouZw8YZtHQ1YzpknJESI5vii3AmkgDWsaX+pXoPYUEGb9u6wivYGREVgFwumsF/UM9MrFWrpwvaemWezI/FOhawmCs5TTOjGzAkThJ22O34mDuSdQ3OT+C08P76EN/KaePqu+13UZWbMKeTZFyPcmShDcu49hvJAl39eDFMoZbb9egrLQc6SGxWLMlHhfaB33+MI4xWU47Y7KT6ywwY7LXbnYf7yhYYzLjUvDFJR/fSty9jgR0lYgbojKQZe2iLC9pZeuaKcFzR57HvoQ7yzspMq5Q5tSWllL7eFlpYeka6vW7JFytojEqFZkLknDFMokhSXoGJicwZTEhIioJGbGxiJAJu4xh6di561uID/lH/O8qGTus5UU02YrzVadRaydf+tBRKCzchMII95vOjQlrsT7Gtna4ZbweVUO2X+hT0gpbb96EcpkELCSlFOvCK3FWj08gIsvx7JZSad1VVSzSTfsY3mx1NFWZTS0mIV0mYLP9f8XcKRNROc9IpvrVluVy5Kv7lwdV2eqDqnHfT28mk7bbXwqmzc6aw+11mZmGmndHyZ/BmIKsWCmnbTD43I7u/K+lFaeqm7H/vkLpyh+JTWXbkNb8Gbp9/3xhcVmcveMv5XRWh9X+TCYerDgqXcvlclCG2/D5602uk3B7mZWeVtQ2bZC5BNRZ9pPkIc+g87XqvVBXxmT1QRpjsrNLKSBjsrMK6+mzII3JjEvBF5f0dNuxLL4V0FUiborPQIY9SbFMzaBo27PYnhAC80Qzzt06jbMt9WiV5W2mpKt6TGw2yvJkQql1OegccpyhKdJ1fbhKHZMoPwJbR+485ZZu7VONtRgcVn8dDmFqfgFw32I73PustIo2X0Zlw3Vc7Zby2mbnmt80JDIfu7c+jWcKUyVpiULpli/hQPvP8eGwdlmLMlmHDy/WOSz+nTcNSF7zIu4rs51AZbYDn9U1ueiWbkCKTMaWaf2KBWNddWieq9ZkA6r6zShPk94CIQUol+7cZ5smXZRB64+jsGnLUWy2z35uGb+ONy7ewKiTYiTFJkjnbdtLmRzEgIsnKsr4AAYsCvLVpd0M4UiOUVPdESdH8M5HM/O5vsyGbpLmbRcvQ0gY5uddM8QhKcpJIi53Yu/t07hcno+dYheashP7U8/i9W4XGC7K4P2P/aWc3q+5t/YYWrYGpanSu0IemHaeuIHbww72bAhFfFE6cvNjERlmwWTfIFqud2FwYgK97ZOwrImCISHa+rBLk9XuGJMZkx1cpnNvBWZMdlJhXX0UxDGZcSmo4pKubjs3C+MXOZebddFys5Bzh9MdHE/BmVs9+IFWY/KsJZCkLDHd2gXX+q+IEtyXacBw23H8/LPP0Di9MPGcwehwIy5cb8QXDWlInFqiVbHrClreuOKgfmMYPvF7OPpN6GBjn7010/sp/vatdtQ7aeGcnWjCp6f/BWExf4Kn02Rm8ZBs7JLJsD6+0q6rXgAhCXvxjfvKYJ1XTZlAzeXXcax3ib7J86LxsjyZfWIvmZn7dkcz7rS9Dkk39V6Y0zJgkrHEa3MKEN5Upatu+ZGZR/DlQhnHrtZHGcWVS+/hkotnBbGRMfOTkymTw5h/nmKIxpqSfbg/JRS9rWfwcXOPtYVZnZl8SL32pWeAeo/EyfeNkogvccV77VodmFB7nqjrhxsQG5uICDQ6XJLMdkADkhJSMb8alQwniIlUp9dy8sBgphon63px38Y0WXc9ATvXbcB73VecPsTwWuU82ZG/lNOTOmm2bQhytmTYWsMnOnH9/OiiLr+hOYXY+9VylGZJbFvQ40aZGkHd2+dxY9wWEQzhIfcMTfJNJRiTGZODNib75pby/l6DMCYzLgVfXPL+jaPBHnWec2kgsKxD2Nufl/VdL38pFFmJKfYJotTurUZMdR3HT0+euicJv/uws2PdkAmb/fJlGWlxmoTPV0rGTp+73YgZ67MIE1JTshCtpxrLmtBP7D2MNdYpw6V7dvPbeLmqx0VruGwaUYzyZDXZkzzW0iYTtC3MYi3o7KjHoDXjlKWMMkpRpKOrFdJK/9j2bUhWW6qlzqOtx/HbBnV8u/NXVJitvupWlpkp+4MFI3I2voQ/3bEXu9fsxJP7voOXCuNsCbsi29hOvHzDgIiwCOcH8NKnbX1zwz3UoQHFKHHWKC6T1W3MWThTupQzNHz+gYPjIpnRXHNGJoFTxYyIzN6NPbqcHd9fyulYeVXfNSUht1hdllDBjCzP1zx2d2lCckvx6Pe3oCz77iRc3coQHoviZ3fjgY32fhYLs3QfVooxmTHZ1r8uGGOyD28sr+46+GIy41LwxSWv3jLcma4FjNPS7dXR3z09pH1fCUOKjH+9M2mZZboWb54+jTZfN/35vmZeOcLYcB9G7VmeMTLe1vLslT2vdCfRqNj+ZRyyjuNXMDtciVfOXsWAG7uNzpTk2mRrBrPIkmU1sn7wwpe57zZqp20XgFF6SGxImR+47MbefblJKAo2PoF9MtmYNQ2fqsXvzl92q86h1sTd/rLM2sb6SyK7Ljv9ToufDEFYn5sH27gRM2YW3AOhJkcT+3m/rp1t1ei2H9cYvh4PlWbYy3PvsQxIKHgYD6beXa4Qk+tzpYxfwcdNttZ9ddmzvWVFd7q333uYVfy3v5RzFYkcHtqQkoQ06+QJ0p1Uej/cNYAoLBk7XlyPzGj5XHrD9F24it//6F384odv4pf/7WN8+GGXdEOXoRhZ9kkQHR5hdd9kTGZMVq/AQIrJq3tHuX90xuSlrRiXAiMuLX2G+UmgCYQ8cKJbH3UKlYmoYuaaPGU8YfWHOKvJgEB9VB/S/ToxMQf5CSlIjoxGRIhJJqS7UzZDZLZtjWp5yxASLl2F9fCS4QTFz+AFWQtazaeVmTYc/+x93HLVI91a9HCUZBfauzNb0Nd1e/FkXeYmVPXMYGeutK4a46QbewaM3W0+75btSjYkcS/+qCzd1ltcuuFXXX4HZ9y8Vu9q2JOJB625rjKGvrFpKCnqzNLqy4L+kQF7jwKLrKd8p0QGrVoG+8/j446deCFbyiTXZkHF1/Ed/A6v3apF39z4caPMZl3yCF7cugHxMq/6yFQYYsJtDyfUctpSMGeaU7hZdQHtRQeRIz1gkgp3Y9u12zijuwnU/aWczqxdf1ZSmIRfFITMz2Fw7zfsz8xgio7G/zkQvUTvDwXnqnrxww5F5haMRZwa0mUSyj4Z673wFbW1DOvT1LHjFgyfq8Tbv+nE/BYDA6j9/Wn0ju7B00+l3RnycG+BfP1vxmTG5KCLySu7qbwdQ5YuTXDEZIf1Z1wKirjk8Nyv4E3t7s0VFDJIv6qbydqM8ZkyEYMtDVHMrThzu8N11+ZAOGkhKahYdxhHS9chL/LO7PBOq2ZUV2te/VdI4j4ZF15qXwN8XBLS1/Fen+sZtq0lN+XLBGz27suSiNZ2dDhIsCfl/TbM5hRJa7F0yZeJ3TK+aIOmUxfcy2xIw8Ed+5BnHbOtYKLzQ/ymbmCJpOTeLwPmhT08jHNJzyS+uPQmTkY8gl1Joehr+wT/en3ugYOMjV3QJd9s8f2M6bZSD+LM+eOoSHoS5epSZjKOe+OWb2DDxjH0Dg9iXAlDQlwy4mV6dYPaNb/tI3xkfhhP5dmuTLPZ7JaJZeA8TnbsxovZsrZ6aAkOFKfj3LUuB9fCYkst3/GXcq7ERF2JQu2x4eo/CupDlrkV+Bwdz3pryCsiPtL2sMo8juGBhb1dwpG3KdX6mTLZhQvvLUjC53dowcBnN3Bzdwq2SMKu6Ysx2fpwkDE5OGPySu41b8cQZ2UJhph8V/0Zl4IqLjm79pfzmZb35nLKF8zfcfWbSzObaFnWKcH+A84yVIObc/2wNSuB9gcyRJbhucPPYV+iq/G095RNbRV13dyIA1//HkrCl66Xpf8i3nzzAvpdDWx2tIvQQjy59xCK1F/k0qo10CjjwqvdX0ZOXZKsLNz2A1uZUVu+HQ30VzDYeRsdShHy5DAm67I6J9E+4rrAvqm7Aalrn8DRVHXcq9oDoBG/r6xEj+vizAtOyZgPdXP1+wbpZj439NoyegOvfyB/i6xN1uRo7jU1Ky3ni7a5+w1v1d0ych6//MiAr+17BFvj1DrLMnohMUhLirlzQDn3oz0n8YvPryJ171FrvawPKGT8u3uvYVy8dRWPZu5Akjxgyi65H2W3foebji4H93boo638pZw+qv4ydhsRbbtPIKtUTCwcH26Kk4dqtnXqzc2dshLGEjs3D6C5ehIVaTJr+hKbePttxmTGZMZkb99Vvtpf8MRkxqXgi0u+umu4X/0J6CQRNyEzUWZPtv7akq6K3U2Lu57oz25lJTIk48Der8wn4Yp5GPX1Z3GqsQb1g/0YmpqyT85mO4wx+WH8p6P7kO5B41BUQgIS56eyXlxcy4y0WC1+2413YrB5x7M4GK+OC1bHhZ/DK5XXMOTGN+21QW5OCdQlsa0vkyT1R/8Ujzj8fjgSDfbU1ZCFDVlx+Kh6yGUy6ou6G6K34SsVBYi0ZuFTqL/6Fk4OezaJwdjUpJTd1vPBEB4DdYjsoLPMWsaLx8yfQwXjssa8s81VQm/WfWqgEr98twaninbg/rxirJEJFRPC5aeqtHL2DTTiWv1pfHS7CUNKBtZaYVQbM0Zk6SlX5Zw73VOdZ/DZwFY8kRwCY9QmHCr8GLdqXU98N/d9rf7XX8q5XI/q+j7sqV/i27J03l/tT8Bh6fAwOzqKlyqlxdTFCTbZu3Iocj2YFz5YMYYjKsp6E2FmcBz3TA2xoAAKRvvV60ijRJwxmTGZMXmJAODe296OIa6OGugx2Vp/xqWgjEuurn1PP9f63vS0fMG8vU6WL4tFlqwTa83L5Edb+0BXwHdLD8t8AEfSpTuutcqdOHHil3ijY3zp5EVaT5eXNHv78jYitUTGhRfOjQtvxXsyLrzKrXHh9rIY0lGemXBnhnxTNFLl/Lt8Sff0wuxixFRfdLYwlsvdLG+DOGy/7wjWW1vxZYLD3k/wqswM71kaLkn3mJpgxlqLYIiUMbRyAbQ5S2jC4hA/19dXWp8Hx0aWvkaWVzHX3zIPoqb2A+vfki/pNpc5N8eDMiTjez3oQq9043RVLR7cvQ5RMv6ttHQHcuo+RIszlyUL4sMP/KWcPiTwZNeKMncCpS/Fwibthf/fkx36eFvGZMZkxmQf32Te3n0QxGTGpeCMS96+Vbg//QroJLdLQ068vXlUGUTbgIvFmPXr6XbJ8rJK7DOfSw+Ahg/wjrMkXPYaGhlnbT315HXs736EY558wY1tQ5P24aVta2GbDHkMNy++juP9nvUjNsRKF/P45Yxyl7GpqaUoDbuICy4Sf2/XPSbvKL6Uo67hLWn4rExKd+6zZc3o3y+z308r2dZWdWNoKjLk/9xyMtGbMS4NaXPnXe6NzmHXY/C9XXc3LguYkgqQb5/NS5ntRLOHPQWGm07jfEUp9ksyb0q4DwezT+HlVne7t7tTQu9s4y/l9E5tV7YXs6x4oKbiRhlyEKKuQjYXJsxTGB+XT+Llfk6Ist4Ljm8BA2KS5iYwXFlZ3Pk2YzJjMmOyO3eKvrYJ9JjMuBSccUlfdxlL40sBXSTihpgMZIXZx4CYu9Di4Y94XwL5at8psbakTu2K39bTevfSPosOakRmcsb8rOmLPtbqjdAiPLXnIArs48L7G97CK7V9HrYKG5Akk65l25NL89An+PE7H6DJWetnWAW++8xXsFmOa5Cx6RvTw3ChxUUm7k2TsFI8tW2jrXuULLXUevNt/GHAgxbfBWWZ6W9Bu2UT1qj/bTGmo0AmZ4PMmO74JVbJ2Zh/RjXTjiZd3hshKMovQ6KtSwtmeuvR4NmzGenq3oCTNW3YvSVXJgKLwZayzXi39Rz6HcOs3rv+Us7VE5o/8sSI/UGKIQLR6rQC4/aPZBhOT7sk6fIwzpiXgZzYelQPOyiwKRF5pRG2h18OPvb2W4zJNlHGZMZkb99bPt1fgMdkxqXgjEs+vWe4c10JGHd+1IXFf934gYZTU4fEZyDdnphZhjvQ7umPeF2RuleYEA/GesOYjS25ifNdud07gre3isWWnc/igH1c+MzQGbxceQOOfj87P3KMrJmdPT8fwGh3g/Ou2erOphtRLWtmWXN1+VG/Njt/fpIz58fyxqfhKK14DLuibV3SZwY/x69lRvPlXqLKWIMkHfYkXsbdluUVyUJuS71kpvLcLPsM+Qqmeupwe7kHXuoQXnjfELkJhwvj7UNLZnC7uXoZ14WCrrrTuG5dN96A8PT7sS95OU/CvVAhp7vwbjkTU8pQkbtu/q8sXh8LEzolcPPDqf4xTKmn0xiNhNSFAW8KzVd7IPMWwhCejm1HMxwsx2hE4p4NWJ/iSaB0s2BLbMaYrMLI5IuMyYzJS9wj+nw7sGMy41JwxiV93msslS8EtPsj1JjDAAANzElEQVSVs2TpjUhLTLe39lowOdiJXmeto0vux78+GJmctY/1NSIrOdNJYilrda85hD2xq5mUyDla+wyeL5CxOvLARJlpxrHPZMyw617Si09KeDHKU9VJ3uQlsynXd7a4kdQOo6az297ybkRsVikKNLpyw1IP4rmSJNs66eZunDx3Eo3Lawy3WSiduNQkcyBYr3EjYnLuxw5rP//Fr9CUHdg7bzWJqsYqjC7ebHXfMSRi146HUG6fAd8yeROnmpY50drUTXxcP2A7z8Zk3L+uTKbp0uHLi+Us2/Q8vnfga/a/F/DVNamr/MDNe96WriH0W9RsOwRpBfF3zXw+fqkKN7ulVdxgRPyuHXjyhWLkynKGISYjwhITUfzobjz+ZCrsl5X3CuVkT4zJgsOYzJjs5B7R7UcBHJMZl4I0Lun2ZmPBvC2gUTrjrNihMmN6kv3HpwUd/V1uJGbO9ucfnzX1tNlnRZcfooUHcShxbtGUheWXz7Ifw3e3lcgkVqtXr9Ck/Xhpa8n8uPDrF34rXbOX1zQbkVGKYvvkY4qlHdXd7owDlifenQ0YsM+MZowsQXmSBpeu9ER4aMcuZKhjn2USwa6at3GsZzlPHxaeOwUddWdww9ryKzlKWBEe37kbOfcMEjFEFONLu+5Hhn3pMsvIZZxonuvbq9G1YMjHgS3bsCbK8QgWY0Q+Du/7Jr6aG2tvDZ/C7RsncHWpnvYuiz2L+upzaLA+pZCHFLm7sXOJhxQud+XTDfylnD5FcL3zkV50dNnOZdy6dFn9YMFXpvtQ+aub6FAHhxtCkby9Ao//+eP4zo+fxrf+8yEcOZIuc2JMobdtwsOhL66LtdQWjMkS5hiTGZOXukF0/X7gxmTGpWCNS7q+4Vg4Lwo4/oXtxQO43JUhFTkJJnsL6RjaBpfZmubyQPraYLDpHK5sKsT2SFlPN7QATzz0fWTdkgmrOjswOGtCdHQm1uZvx778TPlBakZnR4t01y20j8PVti55RVuRp44Ll5dlZhiW1P14PsVVGaQrdfdp/L/6uZZsdftQlGQXIWJuGMJQPWqXXrvorgNY+m+jdvp+pERIAm5MxPrsNLzV2+nTH+lhOXutD0hsxVV7Bfwx/udaV/W++3Nz7wf473/4/K61xpWJL/C7a1tRsq1QJqqSFv7Mo/j3j+TjVO1NNI6ZERVfiB1r5fNo27EVyyAqL51E7Upa4j0rtm1rGatdvO4ZfGX9I+jpbUBdbxf6J6cxa4pESmIB1mflImluRnc5EyPt7+FXVe6vJe+oSMrIJXzcvB+FhbKKQkge9pfm4tTFZt09nPOXcjoy1uw9ywiabo5iW3YcTBl5WJtXg7NNd9YZmG2pxrG/n8be58tRmiVrji9I1JWpEdx+5zyuxWzFU9mRmhSZMVniO2MyY7Imd5v3DxKoMZlxKXjjkvfvEu5RjwKrn4iHpSPbOv5WferVjdZBrbONVTot0pXqjbMXkbfvPqRLi6sxLAPbK56Rv3vKI0tWDbUfwz9dT8C3jhSuUmHv/EI2hmWiojjTjXJIYoYbeFMS8fmXMQ8bMiPnez8MdtXD2mDmzsvcjGppjd6VGy6JsQkZMuFbytVOn643b5Al4+wTgUurnZwj+ben7fBGozxoWVQ/CzqrXsMr8d/ES8WpMizDiMiEDXho+4ZFWyrKOGqv/Bq/aRlb9JlWbxiMkUhLW2/9c/hSZtHfdhw/P3XeC+djAteqLqInfx/SxS5lzW5UXG/GRXc6TjgsnK/e9Jdyeqn+yhT+4mSXhztT0HuhCT0Hy5EeInNDPJiLa//UdNcM6TNtDTjxkxZcLExHTn4sosJkeFLfENpudmNAZlY3xpzFa1dkWI55GiO+/k8DYzIYkxmTPbzJ3d98WTHE/d0DARqTGZeCOC55cv2vYFuf35srKFsQfNXTvMLrJEaZqC3T3hSijHWgTXc/uL1eZfsOFQy3voWffPg+LgxI98tFCakirc99uHb9X/GTk+fQ7usfob6q5oL9GpNLsV5t0VZfyiRqO9s9aNGW7Tva7WOr1UZxWQJtNfvrr9RLGcYXZ3+Ovzl/EY0Tc/MFLNipPICZHKnBHz79B/z0uqtZ9VdamCW+r/TgZmMT+mdsy1At2kot43AtTpz9Bf7HydNoXt5ohUW7ne2txMnuadvSV2FlOLQmxcHDjEVf0/wNfymn5jALL2OZ+OvyF1NyLg2IWL8Buzc7mIxOHuQM17fh5okqXDheg+sXuqxJuPqyjI5hoHMYAz2TGvSKYExmTGZMXs14sdJjB2ZMZlwK6ri00puC39e9gGHzroOLUkDdl1oPBUzdiZJv70WUNNYo49fR8DfHMXKn16WHJQxDYnIBSpJSkBAuC+6axzEos8ff7m5F3wxPj4eY/re5MQbZMuygID4RsTIEYHZ6GN39Tajp7cekHk6/zHqdkZwjQ0iSkBgeLv0RZjExMYDO/mbUD4xgpaPmHZ2wyNwv47/s34I46U5gGTmDv33nXe275jsq2D3v6bacMZtQ9O+OIFbt8zRbh6a/fguDq/WQU4YxPPpnW5EfbZBY2YNz//A5Lrf44MkiY7IbVyw3cUuAMRnQUwxx66TZNtJdTGZc8uDscVO3BPz03nSrbkG40ep3TQ9C9MVVnsZAXw0q5Y+vIBSwjKKt45r86bTuljF09lTLn3blm2g9g9NDm/CwzB9hjNmMg3knUNuwet3zl6q5v5RzqfJr8v5AIz75bRqe+XoOYqJSsfN7exH2yjmcr570oEeMJiVdcBDGZK3FdXU8xmRdnQ5PChPYMZlxyZNrgdtSwB8EmIh74yyFpiJhz05EzrVeWvoxdLbWtoauN/bPfVAg2ASUdpyqasCBncUyuV8Eytfdh8zGT9Chhx4CC8+FXsoZmYWkLbmYX3NW5pwIW/WBR3egxr64iGPxYbIkWRqiolOw5bsPIvdCDc5/3IDmrhn7Uo53X+SmKJmscHxmeV3SGZODLWKwvisV0HkMcbt6eonJjgrMuORIhe+5EgiUe9NVPYP0cybiXjjxhtB0JO1Pv7On2VpMn2ci7gVa7iJoBRQMNBzHqxFNSFVnu5NJ66Jk1AZWq3v1kudBJ+WMykHyfttQmSWLuqofmNH3yWm8NboZD325AMkR4UjdsRGPbl+PiW4Z5tA8hOEhmZFf1hyPiI2UlQSSkZk5iUs//hiXPJ0jTurJmLyqJ5sH90cB3ccQd1F1EpMdFJdxyQEK33ItEDD3puuqBuMWTMSD8ayzzhTwB4HZdlRea9d/Sf2lnKsuacHgxUt4o6Edmx7bgIqKeESaTIhMT0Gh/C1+hWNNRRwufxAcS1ourj/foQAFliXAmLwsNn6JAhTQXoCTtWlvziNSgAIUCHoBU3wSCioykVucjJSMGMTGhSFMHg3Pjk9iTCYB7KruQMPlVjR2TAe9FQEoQAEKUIACFAg8ASbigXdOWSMKBLxAVGScrL/uvWoqlimMTE7pePIw79WVe6IABShAAQpQgAIUWH0Bdk1f/XPAElCAAh4KvPD0n2OrLB3orZdl+FP8+O3jaNTbZHDeqiD3QwEKUIACFKAABSigKwEm4ro6HSwMBSjgjsD7J/4vTnuzRXxWJgxjEu4OPbehAAUoQAEKUIACFPCCABNxLyByFxSggLYCrR212h6QR6MABShAAQpQgAIUoIAXBXS00qwXa8VdUYACFKAABShAAQpQgAIUoAAFdCrARFynJ4bFogAFKEABClCAAhSgAAUoQIHAFGAiHpjnlbWiAAUoQAEKUIACFKAABShAAZ0KMBHX6YlhsShAAQpQgAIUoAAFKEABClAgMAWYiAfmeWWtKEABClCAAhSgAAUoQAEKUECnAkzEdXpiWCwKUIACFKAABShAAQpQgAIUCEwBJuKBeV5ZKwpQgAIUoAAFKEABClCAAhTQqQATcZ2eGBaLAhSgAAUoQAEKUIACFKAABQJTgIl4YJ5X1ooCFKAABShAAQpQgAIUoAAFdCrARFynJ4bFogAFKEABClCAAhSgAAUoQIHAFGAiHpjnlbWiAAUoQAEKUIACFKAABShAAZ0KMBHX6YlhsShAAQpQgAIUoAAFKEABClAgMAWYiAfmeWWtKEABClCAAhSgAAUoQAEKUECnAkzEdXpiWCwKUIACFKAABShAAQpQgAIUCEwBJuKBeV5ZKwpQgAIUoAAFKEABClCAAhTQqQATcZ2eGBaLAhSgAAUoQAEKUIACFKAABQJTgIl4YJ5X1ooCFKAABShAAQpQgAIUoAAFdCrARFynJ4bFogAFKEABClCAAhSgAAUoQIHAFGAiHpjnlbWiAAUoQAEKUIACFKAABShAAZ0KMBHX6YlhsShAAQpQgAIUoAAFKEABClAgMAWYiAfmeWWtKEABClCAAhSgAAUoQAEKUECnAkzEdXpiWCwKUIACFKAABShAAQpQgAIUCEwBJuKBeV5ZKwpQgAIUoAAFKEABClCAAhTQqQATcZ2eGBaLAhSgAAUoQAEKUIACFKAABQJTgIl4YJ5X1ooCFKAABShAAQpQgAIUoAAFdCrARFynJ4bFogAFKEABClCAAhSgAAUoQIHAFGAiHpjnlbWiAAUoQAEKUIACFKAABShAAZ0KMBHX6YlhsShAAQpQgAIUoAAFKEABClAgMAWYiAfmeWWtKEABClCAAhSgAAUoQAEKUECnAkzEdXpiWCwKUIACFKAABShAAQpQgAIUCEyB/w96QKMjFE1YEQAAAABJRU5ErkJggg==;" parent="1" vertex="1">
          <mxGeometry x="180" y="170" width="994" height="108" as="geometry" />
        </mxCell>
        <mxCell id="Hx75gRmfLcT_vYEecObj-2" value="" style="verticalLabelPosition=bottom;shadow=0;dashed=0;align=center;html=1;verticalAlign=top;strokeWidth=9;shape=mxgraph.mockup.markup.curlyBrace;whiteSpace=wrap;strokeColor=#999999;rotation=-180;" parent="1" vertex="1">
          <mxGeometry x="260" y="240" width="60" height="50" as="geometry" />
        </mxCell>
        <mxCell id="Hx75gRmfLcT_vYEecObj-3" value="a-z arasindaki herhangi bir karakter" style="text;html=1;align=center;verticalAlign=middle;whiteSpace=wrap;rounded=0;fontSize=32;" parent="1" vertex="1">
          <mxGeometry x="210" y="470" width="380" height="80" as="geometry" />
        </mxCell>
        <mxCell id="Hx75gRmfLcT_vYEecObj-4" value="" style="endArrow=classic;html=1;rounded=0;exitX=0.111;exitY=1.019;exitDx=0;exitDy=0;exitPerimeter=0;" parent="1" source="Hx75gRmfLcT_vYEecObj-1" target="Hx75gRmfLcT_vYEecObj-3" edge="1">
          <mxGeometry width="50" height="50" relative="1" as="geometry">
            <mxPoint x="320" y="420" as="sourcePoint" />
            <mxPoint x="370" y="370" as="targetPoint" />
          </mxGeometry>
        </mxCell>
        <mxCell id="Hx75gRmfLcT_vYEecObj-5" value="A-Z arasindaki herhangi bir karakter" style="text;html=1;align=center;verticalAlign=middle;whiteSpace=wrap;rounded=0;fontSize=32;" parent="1" vertex="1">
          <mxGeometry x="440" y="350" width="380" height="80" as="geometry" />
        </mxCell>
        <mxCell id="Hx75gRmfLcT_vYEecObj-6" value="" style="endArrow=classic;html=1;rounded=0;exitX=0.185;exitY=0.983;exitDx=0;exitDy=0;exitPerimeter=0;entryX=0.401;entryY=-0.017;entryDx=0;entryDy=0;entryPerimeter=0;" parent="1" source="Hx75gRmfLcT_vYEecObj-1" target="Hx75gRmfLcT_vYEecObj-5" edge="1">
          <mxGeometry width="50" height="50" relative="1" as="geometry">
            <mxPoint x="760" y="670" as="sourcePoint" />
            <mxPoint x="750" y="540" as="targetPoint" />
          </mxGeometry>
        </mxCell>
        <mxCell id="Hx75gRmfLcT_vYEecObj-7" value="" style="verticalLabelPosition=bottom;shadow=0;dashed=0;align=center;html=1;verticalAlign=top;strokeWidth=9;shape=mxgraph.mockup.markup.curlyBrace;whiteSpace=wrap;strokeColor=#999999;rotation=-180;" parent="1" vertex="1">
          <mxGeometry x="330" y="239" width="60" height="50" as="geometry" />
        </mxCell>
        <mxCell id="Hx75gRmfLcT_vYEecObj-8" value="" style="verticalLabelPosition=bottom;shadow=0;dashed=0;align=center;html=1;verticalAlign=top;strokeWidth=9;shape=mxgraph.mockup.markup.curlyBrace;whiteSpace=wrap;strokeColor=#999999;rotation=-180;" parent="1" vertex="1">
          <mxGeometry x="542" y="239" width="60" height="50" as="geometry" />
        </mxCell>
        <mxCell id="Hx75gRmfLcT_vYEecObj-9" value="" style="endArrow=classic;html=1;rounded=0;exitX=0.185;exitY=0.983;exitDx=0;exitDy=0;exitPerimeter=0;" parent="1" edge="1">
          <mxGeometry width="50" height="50" relative="1" as="geometry">
            <mxPoint x="602.11" y="288.84" as="sourcePoint" />
            <mxPoint x="990" y="360" as="targetPoint" />
          </mxGeometry>
        </mxCell>
        <mxCell id="Hx75gRmfLcT_vYEecObj-10" value="ONE OR MORE" style="text;html=1;align=center;verticalAlign=middle;whiteSpace=wrap;rounded=0;fontSize=32;" parent="1" vertex="1">
          <mxGeometry x="827" y="380" width="380" height="80" as="geometry" />
        </mxCell>
        <mxCell id="0njjhTcIZlbkVFE0teVu-1" value="" style="shape=image;verticalLabelPosition=bottom;labelBackgroundColor=default;verticalAlign=top;aspect=fixed;imageAspect=0;image=https://www.aleksan.com.tr/181651-2/Kitap-raf%C4%B1-Flanel-Battaniye-Okuma-K%C3%BCt%C3%BCphane-Kitap_pictures-uploads.jpg;" parent="1" vertex="1">
          <mxGeometry x="60" y="1200" width="800" height="800" as="geometry" />
        </mxCell>
        <mxCell id="0njjhTcIZlbkVFE0teVu-2" value="library&lt;div&gt;&lt;br&gt;&lt;/div&gt;&lt;div&gt;shelf&amp;nbsp;&lt;/div&gt;&lt;div&gt;&lt;br&gt;&lt;/div&gt;&lt;div&gt;raf&lt;/div&gt;" style="text;html=1;align=center;verticalAlign=middle;whiteSpace=wrap;rounded=0;fontSize=42;" parent="1" vertex="1">
          <mxGeometry x="900" y="1200" width="410" height="290" as="geometry" />
        </mxCell>
        <mxCell id="0njjhTcIZlbkVFE0teVu-3" value="" style="endArrow=classic;startArrow=classic;html=1;rounded=0;strokeWidth=5;strokeColor=#EFFF0A;" parent="1" edge="1">
          <mxGeometry width="50" height="50" relative="1" as="geometry">
            <mxPoint x="750" y="1610" as="sourcePoint" />
            <mxPoint x="750" y="1530" as="targetPoint" />
          </mxGeometry>
        </mxCell>
        <mxCell id="0njjhTcIZlbkVFE0teVu-6" value="" style="endArrow=classic;startArrow=classic;html=1;rounded=0;strokeWidth=5;strokeColor=#EFFF0A;" parent="1" edge="1">
          <mxGeometry width="50" height="50" relative="1" as="geometry">
            <mxPoint x="480" y="1580" as="sourcePoint" />
            <mxPoint x="480" y="1460" as="targetPoint" />
          </mxGeometry>
        </mxCell>
        <mxCell id="0njjhTcIZlbkVFE0teVu-7" value="" style="endArrow=classic;startArrow=classic;html=1;rounded=0;strokeWidth=5;strokeColor=#EFFF0A;" parent="1" edge="1">
          <mxGeometry width="50" height="50" relative="1" as="geometry">
            <mxPoint x="780" y="1780" as="sourcePoint" />
            <mxPoint x="780" y="1710" as="targetPoint" />
          </mxGeometry>
        </mxCell>
        <mxCell id="0njjhTcIZlbkVFE0teVu-8" value="" style="sketch=0;pointerEvents=1;shadow=0;dashed=0;html=1;strokeColor=#b85450;fillColor=#f8cecc;labelPosition=center;verticalLabelPosition=bottom;verticalAlign=top;outlineConnect=0;align=center;shape=mxgraph.office.concepts.book_journal;" parent="1" vertex="1">
          <mxGeometry x="410" y="1520" width="51" height="59" as="geometry" />
        </mxCell>
        <mxCell id="0njjhTcIZlbkVFE0teVu-9" value="" style="sketch=0;pointerEvents=1;shadow=0;dashed=0;html=1;strokeColor=#b85450;fillColor=#f8cecc;labelPosition=center;verticalLabelPosition=bottom;verticalAlign=top;outlineConnect=0;align=center;shape=mxgraph.office.concepts.book_journal;" parent="1" vertex="1">
          <mxGeometry x="769" y="1500" width="131" height="119" as="geometry" />
        </mxCell>
        <mxCell id="0njjhTcIZlbkVFE0teVu-10" value="" style="sketch=0;pointerEvents=1;shadow=0;dashed=0;html=1;strokeColor=#b85450;fillColor=#f8cecc;labelPosition=center;verticalLabelPosition=bottom;verticalAlign=top;outlineConnect=0;align=center;shape=mxgraph.office.concepts.book_journal;" parent="1" vertex="1">
          <mxGeometry x="642" y="1670" width="70" height="119" as="geometry" />
        </mxCell>
        <mxCell id="0njjhTcIZlbkVFE0teVu-11" value="" style="sketch=0;pointerEvents=1;shadow=0;dashed=0;html=1;strokeColor=#b85450;fillColor=#f8cecc;labelPosition=center;verticalLabelPosition=bottom;verticalAlign=top;outlineConnect=0;align=center;shape=mxgraph.office.concepts.book_journal;" parent="1" vertex="1">
          <mxGeometry x="310" y="1400" width="50" height="49" as="geometry" />
        </mxCell>
        <mxCell id="0njjhTcIZlbkVFE0teVu-12" value="" style="sketch=0;pointerEvents=1;shadow=0;dashed=0;html=1;strokeColor=#b85450;fillColor=#f8cecc;labelPosition=center;verticalLabelPosition=bottom;verticalAlign=top;outlineConnect=0;align=center;shape=mxgraph.office.concepts.book_journal;" parent="1" vertex="1">
          <mxGeometry x="1070" y="1610" width="131" height="119" as="geometry" />
        </mxCell>
        <mxCell id="0njjhTcIZlbkVFE0teVu-13" value="" style="sketch=0;pointerEvents=1;shadow=0;dashed=0;html=1;strokeColor=#b85450;fillColor=#f8cecc;labelPosition=center;verticalLabelPosition=bottom;verticalAlign=top;outlineConnect=0;align=center;shape=mxgraph.office.concepts.book_journal;" parent="1" vertex="1">
          <mxGeometry x="1080" y="1700" width="131" height="119" as="geometry" />
        </mxCell>
        <mxCell id="0njjhTcIZlbkVFE0teVu-14" value="" style="sketch=0;pointerEvents=1;shadow=0;dashed=0;html=1;strokeColor=#b85450;fillColor=#f8cecc;labelPosition=center;verticalLabelPosition=bottom;verticalAlign=top;outlineConnect=0;align=center;shape=mxgraph.office.concepts.book_journal;" parent="1" vertex="1">
          <mxGeometry x="990" y="1754" width="131" height="119" as="geometry" />
        </mxCell>
        <mxCell id="0njjhTcIZlbkVFE0teVu-15" value="" style="sketch=0;pointerEvents=1;shadow=0;dashed=0;html=1;strokeColor=#b85450;fillColor=#f8cecc;labelPosition=center;verticalLabelPosition=bottom;verticalAlign=top;outlineConnect=0;align=center;shape=mxgraph.office.concepts.book_journal;" parent="1" vertex="1">
          <mxGeometry x="960" y="1760" width="131" height="119" as="geometry" />
        </mxCell>
        <mxCell id="0njjhTcIZlbkVFE0teVu-16" value="" style="sketch=0;pointerEvents=1;shadow=0;dashed=0;html=1;strokeColor=#b85450;fillColor=#f8cecc;labelPosition=center;verticalLabelPosition=bottom;verticalAlign=top;outlineConnect=0;align=center;shape=mxgraph.office.concepts.book_journal;" parent="1" vertex="1">
          <mxGeometry x="980" y="1770" width="131" height="119" as="geometry" />
        </mxCell>
        <mxCell id="0njjhTcIZlbkVFE0teVu-17" value="" style="sketch=0;pointerEvents=1;shadow=0;dashed=0;html=1;strokeColor=#b85450;fillColor=#f8cecc;labelPosition=center;verticalLabelPosition=bottom;verticalAlign=top;outlineConnect=0;align=center;shape=mxgraph.office.concepts.book_journal;" parent="1" vertex="1">
          <mxGeometry x="990" y="1770" width="131" height="119" as="geometry" />
        </mxCell>
        <mxCell id="0njjhTcIZlbkVFE0teVu-18" value="" style="sketch=0;pointerEvents=1;shadow=0;dashed=0;html=1;strokeColor=#b85450;fillColor=#f8cecc;labelPosition=center;verticalLabelPosition=bottom;verticalAlign=top;outlineConnect=0;align=center;shape=mxgraph.office.concepts.book_journal;" parent="1" vertex="1">
          <mxGeometry x="1020" y="1770" width="131" height="119" as="geometry" />
        </mxCell>
        <mxCell id="0njjhTcIZlbkVFE0teVu-19" value="" style="sketch=0;pointerEvents=1;shadow=0;dashed=0;html=1;strokeColor=#b85450;fillColor=#f8cecc;labelPosition=center;verticalLabelPosition=bottom;verticalAlign=top;outlineConnect=0;align=center;shape=mxgraph.office.concepts.book_journal;" parent="1" vertex="1">
          <mxGeometry x="1030" y="1770" width="131" height="119" as="geometry" />
        </mxCell>
        <mxCell id="0njjhTcIZlbkVFE0teVu-20" value="" style="sketch=0;pointerEvents=1;shadow=0;dashed=0;html=1;strokeColor=#b85450;fillColor=#f8cecc;labelPosition=center;verticalLabelPosition=bottom;verticalAlign=top;outlineConnect=0;align=center;shape=mxgraph.office.concepts.book_journal;" parent="1" vertex="1">
          <mxGeometry x="1130" y="1800" width="131" height="119" as="geometry" />
        </mxCell>
        <mxCell id="0njjhTcIZlbkVFE0teVu-21" value="50" style="text;html=1;align=center;verticalAlign=middle;whiteSpace=wrap;rounded=0;fontSize=42;" parent="1" vertex="1">
          <mxGeometry x="1310" y="1809" width="60" height="70" as="geometry" />
        </mxCell>
        <mxCell id="0njjhTcIZlbkVFE0teVu-22" value="5000" style="text;html=1;align=center;verticalAlign=middle;whiteSpace=wrap;rounded=0;fontSize=42;" parent="1" vertex="1">
          <mxGeometry x="1310" y="1960" width="60" height="70" as="geometry" />
        </mxCell>
        <mxCell id="0njjhTcIZlbkVFE0teVu-23" value="" style="sketch=0;pointerEvents=1;shadow=0;dashed=0;html=1;strokeColor=#b85450;fillColor=#f8cecc;labelPosition=center;verticalLabelPosition=bottom;verticalAlign=top;outlineConnect=0;align=center;shape=mxgraph.office.concepts.book_journal;" parent="1" vertex="1">
          <mxGeometry x="740" y="1800" width="70" height="70" as="geometry" />
        </mxCell>
        <mxCell id="0njjhTcIZlbkVFE0teVu-26" style="edgeStyle=orthogonalEdgeStyle;rounded=0;orthogonalLoop=1;jettySize=auto;html=1;" parent="1" source="0njjhTcIZlbkVFE0teVu-24" target="0njjhTcIZlbkVFE0teVu-25" edge="1">
          <mxGeometry relative="1" as="geometry" />
        </mxCell>
        <mxCell id="0njjhTcIZlbkVFE0teVu-24" value="Lawyer&lt;div&gt;Laywer (!)&lt;br&gt;&lt;div&gt;Doctor&lt;/div&gt;&lt;div&gt;docr.&lt;/div&gt;&lt;div&gt;.....&lt;/div&gt;&lt;div&gt;&lt;br&gt;&lt;/div&gt;&lt;/div&gt;" style="text;html=1;align=center;verticalAlign=middle;whiteSpace=wrap;rounded=0;fontSize=32;" parent="1" vertex="1">
          <mxGeometry x="110" y="2380" width="200" height="230" as="geometry" />
        </mxCell>
        <mxCell id="0njjhTcIZlbkVFE0teVu-25" value="1&lt;div&gt;2&lt;/div&gt;&lt;div&gt;...&lt;/div&gt;&lt;div&gt;&lt;br&gt;&lt;/div&gt;" style="text;html=1;align=center;verticalAlign=middle;whiteSpace=wrap;rounded=0;fontSize=32;" parent="1" vertex="1">
          <mxGeometry x="500" y="2380" width="200" height="200" as="geometry" />
        </mxCell>
        <mxCell id="0njjhTcIZlbkVFE0teVu-27" value="35 byte" style="text;html=1;align=center;verticalAlign=middle;whiteSpace=wrap;rounded=0;fontSize=32;" parent="1" vertex="1">
          <mxGeometry x="280" y="2340" width="100" height="30" as="geometry" />
        </mxCell>
        <mxCell id="0njjhTcIZlbkVFE0teVu-28" value="1 byte" style="text;html=1;align=center;verticalAlign=middle;whiteSpace=wrap;rounded=0;fontSize=32;" parent="1" vertex="1">
          <mxGeometry x="530" y="2330" width="100" height="30" as="geometry" />
        </mxCell>
        <mxCell id="0njjhTcIZlbkVFE0teVu-29" value="34 x 1 milyon" style="text;html=1;align=center;verticalAlign=middle;whiteSpace=wrap;rounded=0;fontSize=32;" parent="1" vertex="1">
          <mxGeometry x="760" y="2338" width="100" height="30" as="geometry" />
        </mxCell>
        <mxCell id="0njjhTcIZlbkVFE0teVu-30" value="Country" style="shape=table;startSize=30;container=1;collapsible=0;childLayout=tableLayout;fixedRows=1;rowLines=0;fontStyle=0;strokeColor=default;fontSize=16;" parent="1" vertex="1">
          <mxGeometry x="60" y="2670" width="180" height="120" as="geometry" />
        </mxCell>
        <mxCell id="0njjhTcIZlbkVFE0teVu-31" value="" style="shape=tableRow;horizontal=0;startSize=0;swimlaneHead=0;swimlaneBody=0;top=0;left=0;bottom=0;right=0;collapsible=0;dropTarget=0;fillColor=none;points=[[0,0.5],[1,0.5]];portConstraint=eastwest;strokeColor=inherit;fontSize=16;" parent="0njjhTcIZlbkVFE0teVu-30" vertex="1">
          <mxGeometry y="30" width="180" height="30" as="geometry" />
        </mxCell>
        <mxCell id="0njjhTcIZlbkVFE0teVu-32" value="1" style="shape=partialRectangle;html=1;whiteSpace=wrap;connectable=0;fillColor=none;top=0;left=0;bottom=0;right=0;overflow=hidden;pointerEvents=1;strokeColor=inherit;fontSize=16;" parent="0njjhTcIZlbkVFE0teVu-31" vertex="1">
          <mxGeometry width="40" height="30" as="geometry">
            <mxRectangle width="40" height="30" as="alternateBounds" />
          </mxGeometry>
        </mxCell>
        <mxCell id="0njjhTcIZlbkVFE0teVu-33" value="Azerbaycan" style="shape=partialRectangle;html=1;whiteSpace=wrap;connectable=0;fillColor=none;top=0;left=0;bottom=0;right=0;align=left;spacingLeft=6;overflow=hidden;strokeColor=inherit;fontSize=16;" parent="0njjhTcIZlbkVFE0teVu-31" vertex="1">
          <mxGeometry x="40" width="140" height="30" as="geometry">
            <mxRectangle width="140" height="30" as="alternateBounds" />
          </mxGeometry>
        </mxCell>
        <mxCell id="0njjhTcIZlbkVFE0teVu-34" value="" style="shape=tableRow;horizontal=0;startSize=0;swimlaneHead=0;swimlaneBody=0;top=0;left=0;bottom=0;right=0;collapsible=0;dropTarget=0;fillColor=none;points=[[0,0.5],[1,0.5]];portConstraint=eastwest;strokeColor=inherit;fontSize=16;" parent="0njjhTcIZlbkVFE0teVu-30" vertex="1">
          <mxGeometry y="60" width="180" height="30" as="geometry" />
        </mxCell>
        <mxCell id="0njjhTcIZlbkVFE0teVu-35" value="2" style="shape=partialRectangle;html=1;whiteSpace=wrap;connectable=0;fillColor=none;top=0;left=0;bottom=0;right=0;overflow=hidden;strokeColor=inherit;fontSize=16;" parent="0njjhTcIZlbkVFE0teVu-34" vertex="1">
          <mxGeometry width="40" height="30" as="geometry">
            <mxRectangle width="40" height="30" as="alternateBounds" />
          </mxGeometry>
        </mxCell>
        <mxCell id="0njjhTcIZlbkVFE0teVu-36" value="Turkiye" style="shape=partialRectangle;html=1;whiteSpace=wrap;connectable=0;fillColor=none;top=0;left=0;bottom=0;right=0;align=left;spacingLeft=6;overflow=hidden;strokeColor=inherit;fontSize=16;" parent="0njjhTcIZlbkVFE0teVu-34" vertex="1">
          <mxGeometry x="40" width="140" height="30" as="geometry">
            <mxRectangle width="140" height="30" as="alternateBounds" />
          </mxGeometry>
        </mxCell>
        <mxCell id="0njjhTcIZlbkVFE0teVu-37" value="" style="shape=tableRow;horizontal=0;startSize=0;swimlaneHead=0;swimlaneBody=0;top=0;left=0;bottom=0;right=0;collapsible=0;dropTarget=0;fillColor=none;points=[[0,0.5],[1,0.5]];portConstraint=eastwest;strokeColor=inherit;fontSize=16;" parent="0njjhTcIZlbkVFE0teVu-30" vertex="1">
          <mxGeometry y="90" width="180" height="30" as="geometry" />
        </mxCell>
        <mxCell id="0njjhTcIZlbkVFE0teVu-38" value="3" style="shape=partialRectangle;html=1;whiteSpace=wrap;connectable=0;fillColor=none;top=0;left=0;bottom=0;right=0;overflow=hidden;strokeColor=inherit;fontSize=16;" parent="0njjhTcIZlbkVFE0teVu-37" vertex="1">
          <mxGeometry width="40" height="30" as="geometry">
            <mxRectangle width="40" height="30" as="alternateBounds" />
          </mxGeometry>
        </mxCell>
        <mxCell id="0njjhTcIZlbkVFE0teVu-39" value="KKTC" style="shape=partialRectangle;html=1;whiteSpace=wrap;connectable=0;fillColor=none;top=0;left=0;bottom=0;right=0;align=left;spacingLeft=6;overflow=hidden;strokeColor=inherit;fontSize=16;" parent="0njjhTcIZlbkVFE0teVu-37" vertex="1">
          <mxGeometry x="40" width="140" height="30" as="geometry">
            <mxRectangle width="140" height="30" as="alternateBounds" />
          </mxGeometry>
        </mxCell>
        <mxCell id="0njjhTcIZlbkVFE0teVu-40" value="MAIN TABLE" style="shape=table;startSize=30;container=1;collapsible=0;childLayout=tableLayout;strokeColor=default;fontSize=16;" parent="1" vertex="1">
          <mxGeometry x="482" y="2610" width="180" height="150" as="geometry" />
        </mxCell>
        <mxCell id="0njjhTcIZlbkVFE0teVu-41" value="" style="shape=tableRow;horizontal=0;startSize=0;swimlaneHead=0;swimlaneBody=0;strokeColor=inherit;top=0;left=0;bottom=0;right=0;collapsible=0;dropTarget=0;fillColor=none;points=[[0,0.5],[1,0.5]];portConstraint=eastwest;fontSize=16;" parent="0njjhTcIZlbkVFE0teVu-40" vertex="1">
          <mxGeometry y="30" width="180" height="40" as="geometry" />
        </mxCell>
        <mxCell id="0njjhTcIZlbkVFE0teVu-42" value="name" style="shape=partialRectangle;html=1;whiteSpace=wrap;connectable=0;strokeColor=inherit;overflow=hidden;fillColor=none;top=0;left=0;bottom=0;right=0;pointerEvents=1;fontSize=16;" parent="0njjhTcIZlbkVFE0teVu-41" vertex="1">
          <mxGeometry width="60" height="40" as="geometry">
            <mxRectangle width="60" height="40" as="alternateBounds" />
          </mxGeometry>
        </mxCell>
        <mxCell id="0njjhTcIZlbkVFE0teVu-43" value="country id" style="shape=partialRectangle;html=1;whiteSpace=wrap;connectable=0;strokeColor=inherit;overflow=hidden;fillColor=none;top=0;left=0;bottom=0;right=0;pointerEvents=1;fontSize=16;" parent="0njjhTcIZlbkVFE0teVu-41" vertex="1">
          <mxGeometry x="60" width="60" height="40" as="geometry">
            <mxRectangle width="60" height="40" as="alternateBounds" />
          </mxGeometry>
        </mxCell>
        <mxCell id="0njjhTcIZlbkVFE0teVu-44" value="....." style="shape=partialRectangle;html=1;whiteSpace=wrap;connectable=0;strokeColor=inherit;overflow=hidden;fillColor=none;top=0;left=0;bottom=0;right=0;pointerEvents=1;fontSize=16;" parent="0njjhTcIZlbkVFE0teVu-41" vertex="1">
          <mxGeometry x="120" width="60" height="40" as="geometry">
            <mxRectangle width="60" height="40" as="alternateBounds" />
          </mxGeometry>
        </mxCell>
        <mxCell id="0njjhTcIZlbkVFE0teVu-45" value="" style="shape=tableRow;horizontal=0;startSize=0;swimlaneHead=0;swimlaneBody=0;strokeColor=inherit;top=0;left=0;bottom=0;right=0;collapsible=0;dropTarget=0;fillColor=none;points=[[0,0.5],[1,0.5]];portConstraint=eastwest;fontSize=16;" parent="0njjhTcIZlbkVFE0teVu-40" vertex="1">
          <mxGeometry y="70" width="180" height="40" as="geometry" />
        </mxCell>
        <mxCell id="0njjhTcIZlbkVFE0teVu-46" value="" style="shape=partialRectangle;html=1;whiteSpace=wrap;connectable=0;strokeColor=inherit;overflow=hidden;fillColor=none;top=0;left=0;bottom=0;right=0;pointerEvents=1;fontSize=16;" parent="0njjhTcIZlbkVFE0teVu-45" vertex="1">
          <mxGeometry width="60" height="40" as="geometry">
            <mxRectangle width="60" height="40" as="alternateBounds" />
          </mxGeometry>
        </mxCell>
        <mxCell id="0njjhTcIZlbkVFE0teVu-47" value="1" style="shape=partialRectangle;html=1;whiteSpace=wrap;connectable=0;strokeColor=inherit;overflow=hidden;fillColor=none;top=0;left=0;bottom=0;right=0;pointerEvents=1;fontSize=16;" parent="0njjhTcIZlbkVFE0teVu-45" vertex="1">
          <mxGeometry x="60" width="60" height="40" as="geometry">
            <mxRectangle width="60" height="40" as="alternateBounds" />
          </mxGeometry>
        </mxCell>
        <mxCell id="0njjhTcIZlbkVFE0teVu-48" value="" style="shape=partialRectangle;html=1;whiteSpace=wrap;connectable=0;strokeColor=inherit;overflow=hidden;fillColor=none;top=0;left=0;bottom=0;right=0;pointerEvents=1;fontSize=16;" parent="0njjhTcIZlbkVFE0teVu-45" vertex="1">
          <mxGeometry x="120" width="60" height="40" as="geometry">
            <mxRectangle width="60" height="40" as="alternateBounds" />
          </mxGeometry>
        </mxCell>
        <mxCell id="0njjhTcIZlbkVFE0teVu-49" value="" style="shape=tableRow;horizontal=0;startSize=0;swimlaneHead=0;swimlaneBody=0;strokeColor=inherit;top=0;left=0;bottom=0;right=0;collapsible=0;dropTarget=0;fillColor=none;points=[[0,0.5],[1,0.5]];portConstraint=eastwest;fontSize=16;" parent="0njjhTcIZlbkVFE0teVu-40" vertex="1">
          <mxGeometry y="110" width="180" height="40" as="geometry" />
        </mxCell>
        <mxCell id="0njjhTcIZlbkVFE0teVu-50" value="" style="shape=partialRectangle;html=1;whiteSpace=wrap;connectable=0;strokeColor=inherit;overflow=hidden;fillColor=none;top=0;left=0;bottom=0;right=0;pointerEvents=1;fontSize=16;" parent="0njjhTcIZlbkVFE0teVu-49" vertex="1">
          <mxGeometry width="60" height="40" as="geometry">
            <mxRectangle width="60" height="40" as="alternateBounds" />
          </mxGeometry>
        </mxCell>
        <mxCell id="0njjhTcIZlbkVFE0teVu-51" value="2" style="shape=partialRectangle;html=1;whiteSpace=wrap;connectable=0;strokeColor=inherit;overflow=hidden;fillColor=none;top=0;left=0;bottom=0;right=0;pointerEvents=1;fontSize=16;" parent="0njjhTcIZlbkVFE0teVu-49" vertex="1">
          <mxGeometry x="60" width="60" height="40" as="geometry">
            <mxRectangle width="60" height="40" as="alternateBounds" />
          </mxGeometry>
        </mxCell>
        <mxCell id="0njjhTcIZlbkVFE0teVu-52" value="" style="shape=partialRectangle;html=1;whiteSpace=wrap;connectable=0;strokeColor=inherit;overflow=hidden;fillColor=none;top=0;left=0;bottom=0;right=0;pointerEvents=1;fontSize=16;" parent="0njjhTcIZlbkVFE0teVu-49" vertex="1">
          <mxGeometry x="120" width="60" height="40" as="geometry">
            <mxRectangle width="60" height="40" as="alternateBounds" />
          </mxGeometry>
        </mxCell>
        <mxCell id="0njjhTcIZlbkVFE0teVu-53" value="" style="endArrow=classic;html=1;rounded=0;" parent="1" source="0njjhTcIZlbkVFE0teVu-45" target="0njjhTcIZlbkVFE0teVu-31" edge="1">
          <mxGeometry width="50" height="50" relative="1" as="geometry">
            <mxPoint x="400" y="2810" as="sourcePoint" />
            <mxPoint x="450" y="2760" as="targetPoint" />
          </mxGeometry>
        </mxCell>
        <mxCell id="0njjhTcIZlbkVFE0teVu-54" value="database normalization" style="text;html=1;align=center;verticalAlign=middle;whiteSpace=wrap;rounded=0;fontSize=32;" parent="1" vertex="1">
          <mxGeometry x="300" y="2790" width="240" height="30" as="geometry" />
        </mxCell>
        <mxCell id="0njjhTcIZlbkVFE0teVu-55" value="200 tane" style="text;html=1;align=center;verticalAlign=middle;whiteSpace=wrap;rounded=0;" parent="1" vertex="1">
          <mxGeometry x="90" y="2800" width="60" height="30" as="geometry" />
        </mxCell>
        <mxCell id="0njjhTcIZlbkVFE0teVu-56" value="1 milyon" style="text;html=1;align=center;verticalAlign=middle;whiteSpace=wrap;rounded=0;" parent="1" vertex="1">
          <mxGeometry x="582" y="2770" width="60" height="30" as="geometry" />
        </mxCell>
        <mxCell id="OA2I4mVcc6dnoSAsm5pp-11" value="person" style="shape=table;startSize=30;container=1;collapsible=0;childLayout=tableLayout;strokeColor=default;fontSize=16;" vertex="1" parent="1">
          <mxGeometry x="560" y="3640" width="180" height="150" as="geometry" />
        </mxCell>
        <mxCell id="OA2I4mVcc6dnoSAsm5pp-12" value="" style="shape=tableRow;horizontal=0;startSize=0;swimlaneHead=0;swimlaneBody=0;strokeColor=inherit;top=0;left=0;bottom=0;right=0;collapsible=0;dropTarget=0;fillColor=none;points=[[0,0.5],[1,0.5]];portConstraint=eastwest;fontSize=16;" vertex="1" parent="OA2I4mVcc6dnoSAsm5pp-11">
          <mxGeometry y="30" width="180" height="40" as="geometry" />
        </mxCell>
        <mxCell id="OA2I4mVcc6dnoSAsm5pp-13" value="id" style="shape=partialRectangle;html=1;whiteSpace=wrap;connectable=0;strokeColor=inherit;overflow=hidden;fillColor=none;top=0;left=0;bottom=0;right=0;pointerEvents=1;fontSize=16;" vertex="1" parent="OA2I4mVcc6dnoSAsm5pp-12">
          <mxGeometry width="60" height="40" as="geometry">
            <mxRectangle width="60" height="40" as="alternateBounds" />
          </mxGeometry>
        </mxCell>
        <mxCell id="OA2I4mVcc6dnoSAsm5pp-14" value="fin" style="shape=partialRectangle;html=1;whiteSpace=wrap;connectable=0;strokeColor=inherit;overflow=hidden;fillColor=none;top=0;left=0;bottom=0;right=0;pointerEvents=1;fontSize=16;" vertex="1" parent="OA2I4mVcc6dnoSAsm5pp-12">
          <mxGeometry x="60" width="60" height="40" as="geometry">
            <mxRectangle width="60" height="40" as="alternateBounds" />
          </mxGeometry>
        </mxCell>
        <mxCell id="OA2I4mVcc6dnoSAsm5pp-15" value="dr-lic-date" style="shape=partialRectangle;html=1;whiteSpace=wrap;connectable=0;strokeColor=inherit;overflow=hidden;fillColor=none;top=0;left=0;bottom=0;right=0;pointerEvents=1;fontSize=16;" vertex="1" parent="OA2I4mVcc6dnoSAsm5pp-12">
          <mxGeometry x="120" width="60" height="40" as="geometry">
            <mxRectangle width="60" height="40" as="alternateBounds" />
          </mxGeometry>
        </mxCell>
        <mxCell id="OA2I4mVcc6dnoSAsm5pp-16" value="" style="shape=tableRow;horizontal=0;startSize=0;swimlaneHead=0;swimlaneBody=0;strokeColor=inherit;top=0;left=0;bottom=0;right=0;collapsible=0;dropTarget=0;fillColor=none;points=[[0,0.5],[1,0.5]];portConstraint=eastwest;fontSize=16;" vertex="1" parent="OA2I4mVcc6dnoSAsm5pp-11">
          <mxGeometry y="70" width="180" height="40" as="geometry" />
        </mxCell>
        <mxCell id="OA2I4mVcc6dnoSAsm5pp-17" value="" style="shape=partialRectangle;html=1;whiteSpace=wrap;connectable=0;strokeColor=inherit;overflow=hidden;fillColor=none;top=0;left=0;bottom=0;right=0;pointerEvents=1;fontSize=16;" vertex="1" parent="OA2I4mVcc6dnoSAsm5pp-16">
          <mxGeometry width="60" height="40" as="geometry">
            <mxRectangle width="60" height="40" as="alternateBounds" />
          </mxGeometry>
        </mxCell>
        <mxCell id="OA2I4mVcc6dnoSAsm5pp-18" value="" style="shape=partialRectangle;html=1;whiteSpace=wrap;connectable=0;strokeColor=inherit;overflow=hidden;fillColor=none;top=0;left=0;bottom=0;right=0;pointerEvents=1;fontSize=16;" vertex="1" parent="OA2I4mVcc6dnoSAsm5pp-16">
          <mxGeometry x="60" width="60" height="40" as="geometry">
            <mxRectangle width="60" height="40" as="alternateBounds" />
          </mxGeometry>
        </mxCell>
        <mxCell id="OA2I4mVcc6dnoSAsm5pp-19" value="" style="shape=partialRectangle;html=1;whiteSpace=wrap;connectable=0;strokeColor=inherit;overflow=hidden;fillColor=none;top=0;left=0;bottom=0;right=0;pointerEvents=1;fontSize=16;" vertex="1" parent="OA2I4mVcc6dnoSAsm5pp-16">
          <mxGeometry x="120" width="60" height="40" as="geometry">
            <mxRectangle width="60" height="40" as="alternateBounds" />
          </mxGeometry>
        </mxCell>
        <mxCell id="OA2I4mVcc6dnoSAsm5pp-20" value="" style="shape=tableRow;horizontal=0;startSize=0;swimlaneHead=0;swimlaneBody=0;strokeColor=inherit;top=0;left=0;bottom=0;right=0;collapsible=0;dropTarget=0;fillColor=none;points=[[0,0.5],[1,0.5]];portConstraint=eastwest;fontSize=16;" vertex="1" parent="OA2I4mVcc6dnoSAsm5pp-11">
          <mxGeometry y="110" width="180" height="40" as="geometry" />
        </mxCell>
        <mxCell id="OA2I4mVcc6dnoSAsm5pp-21" value="" style="shape=partialRectangle;html=1;whiteSpace=wrap;connectable=0;strokeColor=inherit;overflow=hidden;fillColor=none;top=0;left=0;bottom=0;right=0;pointerEvents=1;fontSize=16;" vertex="1" parent="OA2I4mVcc6dnoSAsm5pp-20">
          <mxGeometry width="60" height="40" as="geometry">
            <mxRectangle width="60" height="40" as="alternateBounds" />
          </mxGeometry>
        </mxCell>
        <mxCell id="OA2I4mVcc6dnoSAsm5pp-22" value="" style="shape=partialRectangle;html=1;whiteSpace=wrap;connectable=0;strokeColor=inherit;overflow=hidden;fillColor=none;top=0;left=0;bottom=0;right=0;pointerEvents=1;fontSize=16;" vertex="1" parent="OA2I4mVcc6dnoSAsm5pp-20">
          <mxGeometry x="60" width="60" height="40" as="geometry">
            <mxRectangle width="60" height="40" as="alternateBounds" />
          </mxGeometry>
        </mxCell>
        <mxCell id="OA2I4mVcc6dnoSAsm5pp-23" value="" style="shape=partialRectangle;html=1;whiteSpace=wrap;connectable=0;strokeColor=inherit;overflow=hidden;fillColor=none;top=0;left=0;bottom=0;right=0;pointerEvents=1;fontSize=16;" vertex="1" parent="OA2I4mVcc6dnoSAsm5pp-20">
          <mxGeometry x="120" width="60" height="40" as="geometry">
            <mxRectangle width="60" height="40" as="alternateBounds" />
          </mxGeometry>
        </mxCell>
        <mxCell id="OA2I4mVcc6dnoSAsm5pp-24" value="policy" style="shape=table;startSize=30;container=1;collapsible=0;childLayout=tableLayout;strokeColor=default;fontSize=16;" vertex="1" parent="1">
          <mxGeometry x="130" y="3640" width="180" height="150" as="geometry" />
        </mxCell>
        <mxCell id="OA2I4mVcc6dnoSAsm5pp-25" value="" style="shape=tableRow;horizontal=0;startSize=0;swimlaneHead=0;swimlaneBody=0;strokeColor=inherit;top=0;left=0;bottom=0;right=0;collapsible=0;dropTarget=0;fillColor=none;points=[[0,0.5],[1,0.5]];portConstraint=eastwest;fontSize=16;" vertex="1" parent="OA2I4mVcc6dnoSAsm5pp-24">
          <mxGeometry y="30" width="180" height="40" as="geometry" />
        </mxCell>
        <mxCell id="OA2I4mVcc6dnoSAsm5pp-26" value="id" style="shape=partialRectangle;html=1;whiteSpace=wrap;connectable=0;strokeColor=inherit;overflow=hidden;fillColor=none;top=0;left=0;bottom=0;right=0;pointerEvents=1;fontSize=16;" vertex="1" parent="OA2I4mVcc6dnoSAsm5pp-25">
          <mxGeometry width="60" height="40" as="geometry">
            <mxRectangle width="60" height="40" as="alternateBounds" />
          </mxGeometry>
        </mxCell>
        <mxCell id="OA2I4mVcc6dnoSAsm5pp-27" value="pid" style="shape=partialRectangle;html=1;whiteSpace=wrap;connectable=0;strokeColor=inherit;overflow=hidden;fillColor=none;top=0;left=0;bottom=0;right=0;pointerEvents=1;fontSize=16;" vertex="1" parent="OA2I4mVcc6dnoSAsm5pp-25">
          <mxGeometry x="60" width="60" height="40" as="geometry">
            <mxRectangle width="60" height="40" as="alternateBounds" />
          </mxGeometry>
        </mxCell>
        <mxCell id="OA2I4mVcc6dnoSAsm5pp-28" value="date" style="shape=partialRectangle;html=1;whiteSpace=wrap;connectable=0;strokeColor=inherit;overflow=hidden;fillColor=none;top=0;left=0;bottom=0;right=0;pointerEvents=1;fontSize=16;" vertex="1" parent="OA2I4mVcc6dnoSAsm5pp-25">
          <mxGeometry x="120" width="60" height="40" as="geometry">
            <mxRectangle width="60" height="40" as="alternateBounds" />
          </mxGeometry>
        </mxCell>
        <mxCell id="OA2I4mVcc6dnoSAsm5pp-29" value="" style="shape=tableRow;horizontal=0;startSize=0;swimlaneHead=0;swimlaneBody=0;strokeColor=inherit;top=0;left=0;bottom=0;right=0;collapsible=0;dropTarget=0;fillColor=none;points=[[0,0.5],[1,0.5]];portConstraint=eastwest;fontSize=16;" vertex="1" parent="OA2I4mVcc6dnoSAsm5pp-24">
          <mxGeometry y="70" width="180" height="40" as="geometry" />
        </mxCell>
        <mxCell id="OA2I4mVcc6dnoSAsm5pp-30" value="" style="shape=partialRectangle;html=1;whiteSpace=wrap;connectable=0;strokeColor=inherit;overflow=hidden;fillColor=none;top=0;left=0;bottom=0;right=0;pointerEvents=1;fontSize=16;" vertex="1" parent="OA2I4mVcc6dnoSAsm5pp-29">
          <mxGeometry width="60" height="40" as="geometry">
            <mxRectangle width="60" height="40" as="alternateBounds" />
          </mxGeometry>
        </mxCell>
        <mxCell id="OA2I4mVcc6dnoSAsm5pp-31" value="" style="shape=partialRectangle;html=1;whiteSpace=wrap;connectable=0;strokeColor=inherit;overflow=hidden;fillColor=none;top=0;left=0;bottom=0;right=0;pointerEvents=1;fontSize=16;" vertex="1" parent="OA2I4mVcc6dnoSAsm5pp-29">
          <mxGeometry x="60" width="60" height="40" as="geometry">
            <mxRectangle width="60" height="40" as="alternateBounds" />
          </mxGeometry>
        </mxCell>
        <mxCell id="OA2I4mVcc6dnoSAsm5pp-32" value="" style="shape=partialRectangle;html=1;whiteSpace=wrap;connectable=0;strokeColor=inherit;overflow=hidden;fillColor=none;top=0;left=0;bottom=0;right=0;pointerEvents=1;fontSize=16;" vertex="1" parent="OA2I4mVcc6dnoSAsm5pp-29">
          <mxGeometry x="120" width="60" height="40" as="geometry">
            <mxRectangle width="60" height="40" as="alternateBounds" />
          </mxGeometry>
        </mxCell>
        <mxCell id="OA2I4mVcc6dnoSAsm5pp-33" value="" style="shape=tableRow;horizontal=0;startSize=0;swimlaneHead=0;swimlaneBody=0;strokeColor=inherit;top=0;left=0;bottom=0;right=0;collapsible=0;dropTarget=0;fillColor=none;points=[[0,0.5],[1,0.5]];portConstraint=eastwest;fontSize=16;" vertex="1" parent="OA2I4mVcc6dnoSAsm5pp-24">
          <mxGeometry y="110" width="180" height="40" as="geometry" />
        </mxCell>
        <mxCell id="OA2I4mVcc6dnoSAsm5pp-34" value="" style="shape=partialRectangle;html=1;whiteSpace=wrap;connectable=0;strokeColor=inherit;overflow=hidden;fillColor=none;top=0;left=0;bottom=0;right=0;pointerEvents=1;fontSize=16;" vertex="1" parent="OA2I4mVcc6dnoSAsm5pp-33">
          <mxGeometry width="60" height="40" as="geometry">
            <mxRectangle width="60" height="40" as="alternateBounds" />
          </mxGeometry>
        </mxCell>
        <mxCell id="OA2I4mVcc6dnoSAsm5pp-35" value="" style="shape=partialRectangle;html=1;whiteSpace=wrap;connectable=0;strokeColor=inherit;overflow=hidden;fillColor=none;top=0;left=0;bottom=0;right=0;pointerEvents=1;fontSize=16;" vertex="1" parent="OA2I4mVcc6dnoSAsm5pp-33">
          <mxGeometry x="60" width="60" height="40" as="geometry">
            <mxRectangle width="60" height="40" as="alternateBounds" />
          </mxGeometry>
        </mxCell>
        <mxCell id="OA2I4mVcc6dnoSAsm5pp-36" value="" style="shape=partialRectangle;html=1;whiteSpace=wrap;connectable=0;strokeColor=inherit;overflow=hidden;fillColor=none;top=0;left=0;bottom=0;right=0;pointerEvents=1;fontSize=16;" vertex="1" parent="OA2I4mVcc6dnoSAsm5pp-33">
          <mxGeometry x="120" width="60" height="40" as="geometry">
            <mxRectangle width="60" height="40" as="alternateBounds" />
          </mxGeometry>
        </mxCell>
        <mxCell id="OA2I4mVcc6dnoSAsm5pp-37" value="Car Insurance Company" style="text;html=1;align=center;verticalAlign=middle;whiteSpace=wrap;rounded=0;fontStyle=1" vertex="1" parent="1">
          <mxGeometry x="120" y="3530" width="320" height="30" as="geometry" />
        </mxCell>
        <mxCell id="OA2I4mVcc6dnoSAsm5pp-38" value="accident" style="shape=table;startSize=30;container=1;collapsible=0;childLayout=tableLayout;strokeColor=default;fontSize=16;" vertex="1" parent="1">
          <mxGeometry x="570" y="3870" width="180" height="150" as="geometry" />
        </mxCell>
        <mxCell id="OA2I4mVcc6dnoSAsm5pp-39" value="" style="shape=tableRow;horizontal=0;startSize=0;swimlaneHead=0;swimlaneBody=0;strokeColor=inherit;top=0;left=0;bottom=0;right=0;collapsible=0;dropTarget=0;fillColor=none;points=[[0,0.5],[1,0.5]];portConstraint=eastwest;fontSize=16;" vertex="1" parent="OA2I4mVcc6dnoSAsm5pp-38">
          <mxGeometry y="30" width="180" height="40" as="geometry" />
        </mxCell>
        <mxCell id="OA2I4mVcc6dnoSAsm5pp-40" value="id" style="shape=partialRectangle;html=1;whiteSpace=wrap;connectable=0;strokeColor=inherit;overflow=hidden;fillColor=none;top=0;left=0;bottom=0;right=0;pointerEvents=1;fontSize=16;" vertex="1" parent="OA2I4mVcc6dnoSAsm5pp-39">
          <mxGeometry width="60" height="40" as="geometry">
            <mxRectangle width="60" height="40" as="alternateBounds" />
          </mxGeometry>
        </mxCell>
        <mxCell id="OA2I4mVcc6dnoSAsm5pp-41" value="carid" style="shape=partialRectangle;html=1;whiteSpace=wrap;connectable=0;strokeColor=inherit;overflow=hidden;fillColor=none;top=0;left=0;bottom=0;right=0;pointerEvents=1;fontSize=16;" vertex="1" parent="OA2I4mVcc6dnoSAsm5pp-39">
          <mxGeometry x="60" width="60" height="40" as="geometry">
            <mxRectangle width="60" height="40" as="alternateBounds" />
          </mxGeometry>
        </mxCell>
        <mxCell id="OA2I4mVcc6dnoSAsm5pp-42" value="date" style="shape=partialRectangle;html=1;whiteSpace=wrap;connectable=0;strokeColor=inherit;overflow=hidden;fillColor=none;top=0;left=0;bottom=0;right=0;pointerEvents=1;fontSize=16;" vertex="1" parent="OA2I4mVcc6dnoSAsm5pp-39">
          <mxGeometry x="120" width="60" height="40" as="geometry">
            <mxRectangle width="60" height="40" as="alternateBounds" />
          </mxGeometry>
        </mxCell>
        <mxCell id="OA2I4mVcc6dnoSAsm5pp-43" value="" style="shape=tableRow;horizontal=0;startSize=0;swimlaneHead=0;swimlaneBody=0;strokeColor=inherit;top=0;left=0;bottom=0;right=0;collapsible=0;dropTarget=0;fillColor=none;points=[[0,0.5],[1,0.5]];portConstraint=eastwest;fontSize=16;" vertex="1" parent="OA2I4mVcc6dnoSAsm5pp-38">
          <mxGeometry y="70" width="180" height="40" as="geometry" />
        </mxCell>
        <mxCell id="OA2I4mVcc6dnoSAsm5pp-44" value="" style="shape=partialRectangle;html=1;whiteSpace=wrap;connectable=0;strokeColor=inherit;overflow=hidden;fillColor=none;top=0;left=0;bottom=0;right=0;pointerEvents=1;fontSize=16;" vertex="1" parent="OA2I4mVcc6dnoSAsm5pp-43">
          <mxGeometry width="60" height="40" as="geometry">
            <mxRectangle width="60" height="40" as="alternateBounds" />
          </mxGeometry>
        </mxCell>
        <mxCell id="OA2I4mVcc6dnoSAsm5pp-45" value="" style="shape=partialRectangle;html=1;whiteSpace=wrap;connectable=0;strokeColor=inherit;overflow=hidden;fillColor=none;top=0;left=0;bottom=0;right=0;pointerEvents=1;fontSize=16;" vertex="1" parent="OA2I4mVcc6dnoSAsm5pp-43">
          <mxGeometry x="60" width="60" height="40" as="geometry">
            <mxRectangle width="60" height="40" as="alternateBounds" />
          </mxGeometry>
        </mxCell>
        <mxCell id="OA2I4mVcc6dnoSAsm5pp-46" value="" style="shape=partialRectangle;html=1;whiteSpace=wrap;connectable=0;strokeColor=inherit;overflow=hidden;fillColor=none;top=0;left=0;bottom=0;right=0;pointerEvents=1;fontSize=16;" vertex="1" parent="OA2I4mVcc6dnoSAsm5pp-43">
          <mxGeometry x="120" width="60" height="40" as="geometry">
            <mxRectangle width="60" height="40" as="alternateBounds" />
          </mxGeometry>
        </mxCell>
        <mxCell id="OA2I4mVcc6dnoSAsm5pp-47" value="" style="shape=tableRow;horizontal=0;startSize=0;swimlaneHead=0;swimlaneBody=0;strokeColor=inherit;top=0;left=0;bottom=0;right=0;collapsible=0;dropTarget=0;fillColor=none;points=[[0,0.5],[1,0.5]];portConstraint=eastwest;fontSize=16;" vertex="1" parent="OA2I4mVcc6dnoSAsm5pp-38">
          <mxGeometry y="110" width="180" height="40" as="geometry" />
        </mxCell>
        <mxCell id="OA2I4mVcc6dnoSAsm5pp-48" value="" style="shape=partialRectangle;html=1;whiteSpace=wrap;connectable=0;strokeColor=inherit;overflow=hidden;fillColor=none;top=0;left=0;bottom=0;right=0;pointerEvents=1;fontSize=16;" vertex="1" parent="OA2I4mVcc6dnoSAsm5pp-47">
          <mxGeometry width="60" height="40" as="geometry">
            <mxRectangle width="60" height="40" as="alternateBounds" />
          </mxGeometry>
        </mxCell>
        <mxCell id="OA2I4mVcc6dnoSAsm5pp-49" value="" style="shape=partialRectangle;html=1;whiteSpace=wrap;connectable=0;strokeColor=inherit;overflow=hidden;fillColor=none;top=0;left=0;bottom=0;right=0;pointerEvents=1;fontSize=16;" vertex="1" parent="OA2I4mVcc6dnoSAsm5pp-47">
          <mxGeometry x="60" width="60" height="40" as="geometry">
            <mxRectangle width="60" height="40" as="alternateBounds" />
          </mxGeometry>
        </mxCell>
        <mxCell id="OA2I4mVcc6dnoSAsm5pp-50" value="" style="shape=partialRectangle;html=1;whiteSpace=wrap;connectable=0;strokeColor=inherit;overflow=hidden;fillColor=none;top=0;left=0;bottom=0;right=0;pointerEvents=1;fontSize=16;" vertex="1" parent="OA2I4mVcc6dnoSAsm5pp-47">
          <mxGeometry x="120" width="60" height="40" as="geometry">
            <mxRectangle width="60" height="40" as="alternateBounds" />
          </mxGeometry>
        </mxCell>
        <mxCell id="OA2I4mVcc6dnoSAsm5pp-51" value="car" style="shape=table;startSize=30;container=1;collapsible=0;childLayout=tableLayout;strokeColor=default;fontSize=16;" vertex="1" parent="1">
          <mxGeometry x="130" y="3880" width="180" height="150" as="geometry" />
        </mxCell>
        <mxCell id="OA2I4mVcc6dnoSAsm5pp-52" value="" style="shape=tableRow;horizontal=0;startSize=0;swimlaneHead=0;swimlaneBody=0;strokeColor=inherit;top=0;left=0;bottom=0;right=0;collapsible=0;dropTarget=0;fillColor=none;points=[[0,0.5],[1,0.5]];portConstraint=eastwest;fontSize=16;" vertex="1" parent="OA2I4mVcc6dnoSAsm5pp-51">
          <mxGeometry y="30" width="180" height="40" as="geometry" />
        </mxCell>
        <mxCell id="OA2I4mVcc6dnoSAsm5pp-53" value="id" style="shape=partialRectangle;html=1;whiteSpace=wrap;connectable=0;strokeColor=inherit;overflow=hidden;fillColor=none;top=0;left=0;bottom=0;right=0;pointerEvents=1;fontSize=16;" vertex="1" parent="OA2I4mVcc6dnoSAsm5pp-52">
          <mxGeometry width="60" height="40" as="geometry">
            <mxRectangle width="60" height="40" as="alternateBounds" />
          </mxGeometry>
        </mxCell>
        <mxCell id="OA2I4mVcc6dnoSAsm5pp-54" value="plate" style="shape=partialRectangle;html=1;whiteSpace=wrap;connectable=0;strokeColor=inherit;overflow=hidden;fillColor=none;top=0;left=0;bottom=0;right=0;pointerEvents=1;fontSize=16;" vertex="1" parent="OA2I4mVcc6dnoSAsm5pp-52">
          <mxGeometry x="60" width="60" height="40" as="geometry">
            <mxRectangle width="60" height="40" as="alternateBounds" />
          </mxGeometry>
        </mxCell>
        <mxCell id="OA2I4mVcc6dnoSAsm5pp-55" value="model" style="shape=partialRectangle;html=1;whiteSpace=wrap;connectable=0;strokeColor=inherit;overflow=hidden;fillColor=none;top=0;left=0;bottom=0;right=0;pointerEvents=1;fontSize=16;" vertex="1" parent="OA2I4mVcc6dnoSAsm5pp-52">
          <mxGeometry x="120" width="60" height="40" as="geometry">
            <mxRectangle width="60" height="40" as="alternateBounds" />
          </mxGeometry>
        </mxCell>
        <mxCell id="OA2I4mVcc6dnoSAsm5pp-56" value="" style="shape=tableRow;horizontal=0;startSize=0;swimlaneHead=0;swimlaneBody=0;strokeColor=inherit;top=0;left=0;bottom=0;right=0;collapsible=0;dropTarget=0;fillColor=none;points=[[0,0.5],[1,0.5]];portConstraint=eastwest;fontSize=16;" vertex="1" parent="OA2I4mVcc6dnoSAsm5pp-51">
          <mxGeometry y="70" width="180" height="40" as="geometry" />
        </mxCell>
        <mxCell id="OA2I4mVcc6dnoSAsm5pp-57" value="" style="shape=partialRectangle;html=1;whiteSpace=wrap;connectable=0;strokeColor=inherit;overflow=hidden;fillColor=none;top=0;left=0;bottom=0;right=0;pointerEvents=1;fontSize=16;" vertex="1" parent="OA2I4mVcc6dnoSAsm5pp-56">
          <mxGeometry width="60" height="40" as="geometry">
            <mxRectangle width="60" height="40" as="alternateBounds" />
          </mxGeometry>
        </mxCell>
        <mxCell id="OA2I4mVcc6dnoSAsm5pp-58" value="" style="shape=partialRectangle;html=1;whiteSpace=wrap;connectable=0;strokeColor=inherit;overflow=hidden;fillColor=none;top=0;left=0;bottom=0;right=0;pointerEvents=1;fontSize=16;" vertex="1" parent="OA2I4mVcc6dnoSAsm5pp-56">
          <mxGeometry x="60" width="60" height="40" as="geometry">
            <mxRectangle width="60" height="40" as="alternateBounds" />
          </mxGeometry>
        </mxCell>
        <mxCell id="OA2I4mVcc6dnoSAsm5pp-59" value="" style="shape=partialRectangle;html=1;whiteSpace=wrap;connectable=0;strokeColor=inherit;overflow=hidden;fillColor=none;top=0;left=0;bottom=0;right=0;pointerEvents=1;fontSize=16;" vertex="1" parent="OA2I4mVcc6dnoSAsm5pp-56">
          <mxGeometry x="120" width="60" height="40" as="geometry">
            <mxRectangle width="60" height="40" as="alternateBounds" />
          </mxGeometry>
        </mxCell>
        <mxCell id="OA2I4mVcc6dnoSAsm5pp-60" value="" style="shape=tableRow;horizontal=0;startSize=0;swimlaneHead=0;swimlaneBody=0;strokeColor=inherit;top=0;left=0;bottom=0;right=0;collapsible=0;dropTarget=0;fillColor=none;points=[[0,0.5],[1,0.5]];portConstraint=eastwest;fontSize=16;" vertex="1" parent="OA2I4mVcc6dnoSAsm5pp-51">
          <mxGeometry y="110" width="180" height="40" as="geometry" />
        </mxCell>
        <mxCell id="OA2I4mVcc6dnoSAsm5pp-61" value="" style="shape=partialRectangle;html=1;whiteSpace=wrap;connectable=0;strokeColor=inherit;overflow=hidden;fillColor=none;top=0;left=0;bottom=0;right=0;pointerEvents=1;fontSize=16;" vertex="1" parent="OA2I4mVcc6dnoSAsm5pp-60">
          <mxGeometry width="60" height="40" as="geometry">
            <mxRectangle width="60" height="40" as="alternateBounds" />
          </mxGeometry>
        </mxCell>
        <mxCell id="OA2I4mVcc6dnoSAsm5pp-62" value="" style="shape=partialRectangle;html=1;whiteSpace=wrap;connectable=0;strokeColor=inherit;overflow=hidden;fillColor=none;top=0;left=0;bottom=0;right=0;pointerEvents=1;fontSize=16;" vertex="1" parent="OA2I4mVcc6dnoSAsm5pp-60">
          <mxGeometry x="60" width="60" height="40" as="geometry">
            <mxRectangle width="60" height="40" as="alternateBounds" />
          </mxGeometry>
        </mxCell>
        <mxCell id="OA2I4mVcc6dnoSAsm5pp-63" value="" style="shape=partialRectangle;html=1;whiteSpace=wrap;connectable=0;strokeColor=inherit;overflow=hidden;fillColor=none;top=0;left=0;bottom=0;right=0;pointerEvents=1;fontSize=16;" vertex="1" parent="OA2I4mVcc6dnoSAsm5pp-60">
          <mxGeometry x="120" width="60" height="40" as="geometry">
            <mxRectangle width="60" height="40" as="alternateBounds" />
          </mxGeometry>
        </mxCell>
        <mxCell id="OA2I4mVcc6dnoSAsm5pp-77" value="" style="shape=table;startSize=30;container=1;collapsible=0;childLayout=tableLayout;strokeColor=default;fontSize=16;" vertex="1" parent="1">
          <mxGeometry x="310" y="3640" width="180" height="150" as="geometry" />
        </mxCell>
        <mxCell id="OA2I4mVcc6dnoSAsm5pp-78" value="" style="shape=tableRow;horizontal=0;startSize=0;swimlaneHead=0;swimlaneBody=0;strokeColor=inherit;top=0;left=0;bottom=0;right=0;collapsible=0;dropTarget=0;fillColor=none;points=[[0,0.5],[1,0.5]];portConstraint=eastwest;fontSize=16;" vertex="1" parent="OA2I4mVcc6dnoSAsm5pp-77">
          <mxGeometry y="30" width="180" height="40" as="geometry" />
        </mxCell>
        <mxCell id="OA2I4mVcc6dnoSAsm5pp-79" value="carid" style="shape=partialRectangle;html=1;whiteSpace=wrap;connectable=0;strokeColor=inherit;overflow=hidden;fillColor=none;top=0;left=0;bottom=0;right=0;pointerEvents=1;fontSize=16;" vertex="1" parent="OA2I4mVcc6dnoSAsm5pp-78">
          <mxGeometry width="60" height="40" as="geometry">
            <mxRectangle width="60" height="40" as="alternateBounds" />
          </mxGeometry>
        </mxCell>
        <mxCell id="OA2I4mVcc6dnoSAsm5pp-80" value="" style="shape=partialRectangle;html=1;whiteSpace=wrap;connectable=0;strokeColor=inherit;overflow=hidden;fillColor=none;top=0;left=0;bottom=0;right=0;pointerEvents=1;fontSize=16;" vertex="1" parent="OA2I4mVcc6dnoSAsm5pp-78">
          <mxGeometry x="60" width="60" height="40" as="geometry">
            <mxRectangle width="60" height="40" as="alternateBounds" />
          </mxGeometry>
        </mxCell>
        <mxCell id="OA2I4mVcc6dnoSAsm5pp-81" value="" style="shape=partialRectangle;html=1;whiteSpace=wrap;connectable=0;strokeColor=inherit;overflow=hidden;fillColor=none;top=0;left=0;bottom=0;right=0;pointerEvents=1;fontSize=16;" vertex="1" parent="OA2I4mVcc6dnoSAsm5pp-78">
          <mxGeometry x="120" width="60" height="40" as="geometry">
            <mxRectangle width="60" height="40" as="alternateBounds" />
          </mxGeometry>
        </mxCell>
        <mxCell id="OA2I4mVcc6dnoSAsm5pp-82" value="" style="shape=tableRow;horizontal=0;startSize=0;swimlaneHead=0;swimlaneBody=0;strokeColor=inherit;top=0;left=0;bottom=0;right=0;collapsible=0;dropTarget=0;fillColor=none;points=[[0,0.5],[1,0.5]];portConstraint=eastwest;fontSize=16;" vertex="1" parent="OA2I4mVcc6dnoSAsm5pp-77">
          <mxGeometry y="70" width="180" height="40" as="geometry" />
        </mxCell>
        <mxCell id="OA2I4mVcc6dnoSAsm5pp-83" value="33" style="shape=partialRectangle;html=1;whiteSpace=wrap;connectable=0;strokeColor=inherit;overflow=hidden;fillColor=none;top=0;left=0;bottom=0;right=0;pointerEvents=1;fontSize=16;" vertex="1" parent="OA2I4mVcc6dnoSAsm5pp-82">
          <mxGeometry width="60" height="40" as="geometry">
            <mxRectangle width="60" height="40" as="alternateBounds" />
          </mxGeometry>
        </mxCell>
        <mxCell id="OA2I4mVcc6dnoSAsm5pp-84" value="" style="shape=partialRectangle;html=1;whiteSpace=wrap;connectable=0;strokeColor=inherit;overflow=hidden;fillColor=none;top=0;left=0;bottom=0;right=0;pointerEvents=1;fontSize=16;" vertex="1" parent="OA2I4mVcc6dnoSAsm5pp-82">
          <mxGeometry x="60" width="60" height="40" as="geometry">
            <mxRectangle width="60" height="40" as="alternateBounds" />
          </mxGeometry>
        </mxCell>
        <mxCell id="OA2I4mVcc6dnoSAsm5pp-85" value="" style="shape=partialRectangle;html=1;whiteSpace=wrap;connectable=0;strokeColor=inherit;overflow=hidden;fillColor=none;top=0;left=0;bottom=0;right=0;pointerEvents=1;fontSize=16;" vertex="1" parent="OA2I4mVcc6dnoSAsm5pp-82">
          <mxGeometry x="120" width="60" height="40" as="geometry">
            <mxRectangle width="60" height="40" as="alternateBounds" />
          </mxGeometry>
        </mxCell>
        <mxCell id="OA2I4mVcc6dnoSAsm5pp-86" value="" style="shape=tableRow;horizontal=0;startSize=0;swimlaneHead=0;swimlaneBody=0;strokeColor=inherit;top=0;left=0;bottom=0;right=0;collapsible=0;dropTarget=0;fillColor=none;points=[[0,0.5],[1,0.5]];portConstraint=eastwest;fontSize=16;" vertex="1" parent="OA2I4mVcc6dnoSAsm5pp-77">
          <mxGeometry y="110" width="180" height="40" as="geometry" />
        </mxCell>
        <mxCell id="OA2I4mVcc6dnoSAsm5pp-87" value="" style="shape=partialRectangle;html=1;whiteSpace=wrap;connectable=0;strokeColor=inherit;overflow=hidden;fillColor=none;top=0;left=0;bottom=0;right=0;pointerEvents=1;fontSize=16;" vertex="1" parent="OA2I4mVcc6dnoSAsm5pp-86">
          <mxGeometry width="60" height="40" as="geometry">
            <mxRectangle width="60" height="40" as="alternateBounds" />
          </mxGeometry>
        </mxCell>
        <mxCell id="OA2I4mVcc6dnoSAsm5pp-88" value="" style="shape=partialRectangle;html=1;whiteSpace=wrap;connectable=0;strokeColor=inherit;overflow=hidden;fillColor=none;top=0;left=0;bottom=0;right=0;pointerEvents=1;fontSize=16;" vertex="1" parent="OA2I4mVcc6dnoSAsm5pp-86">
          <mxGeometry x="60" width="60" height="40" as="geometry">
            <mxRectangle width="60" height="40" as="alternateBounds" />
          </mxGeometry>
        </mxCell>
        <mxCell id="OA2I4mVcc6dnoSAsm5pp-89" value="" style="shape=partialRectangle;html=1;whiteSpace=wrap;connectable=0;strokeColor=inherit;overflow=hidden;fillColor=none;top=0;left=0;bottom=0;right=0;pointerEvents=1;fontSize=16;" vertex="1" parent="OA2I4mVcc6dnoSAsm5pp-86">
          <mxGeometry x="120" width="60" height="40" as="geometry">
            <mxRectangle width="60" height="40" as="alternateBounds" />
          </mxGeometry>
        </mxCell>
        <mxCell id="OA2I4mVcc6dnoSAsm5pp-90" value="" style="endArrow=classic;startArrow=classic;html=1;rounded=0;" edge="1" parent="1">
          <mxGeometry width="50" height="50" relative="1" as="geometry">
            <mxPoint x="160" y="3860" as="sourcePoint" />
            <mxPoint x="340" y="3700" as="targetPoint" />
            <Array as="points">
              <mxPoint x="160" y="3810" />
              <mxPoint x="340" y="3810" />
            </Array>
          </mxGeometry>
        </mxCell>
        <mxCell id="OA2I4mVcc6dnoSAsm5pp-91" value="Nefer" style="shape=umlActor;verticalLabelPosition=bottom;verticalAlign=top;html=1;outlineConnect=0;" vertex="1" parent="1">
          <mxGeometry x="135" y="4100" width="30" height="60" as="geometry" />
        </mxCell>
        <mxCell id="OA2I4mVcc6dnoSAsm5pp-95" style="edgeStyle=orthogonalEdgeStyle;rounded=0;orthogonalLoop=1;jettySize=auto;html=1;" edge="1" parent="1" source="OA2I4mVcc6dnoSAsm5pp-92" target="OA2I4mVcc6dnoSAsm5pp-94">
          <mxGeometry relative="1" as="geometry" />
        </mxCell>
        <mxCell id="OA2I4mVcc6dnoSAsm5pp-92" value="I want to have an insurance for my CAR" style="text;html=1;align=center;verticalAlign=middle;whiteSpace=wrap;rounded=0;" vertex="1" parent="1">
          <mxGeometry x="210" y="4130" width="60" height="30" as="geometry" />
        </mxCell>
        <mxCell id="OA2I4mVcc6dnoSAsm5pp-104" style="edgeStyle=orthogonalEdgeStyle;rounded=0;orthogonalLoop=1;jettySize=auto;html=1;" edge="1" parent="1" source="OA2I4mVcc6dnoSAsm5pp-93" target="OA2I4mVcc6dnoSAsm5pp-94">
          <mxGeometry relative="1" as="geometry" />
        </mxCell>
        <mxCell id="OA2I4mVcc6dnoSAsm5pp-93" value="" style="shape=mxgraph.signs.transportation.car_2;html=1;pointerEvents=1;fillColor=#000000;strokeColor=none;verticalLabelPosition=bottom;verticalAlign=top;align=center;" vertex="1" parent="1">
          <mxGeometry x="110" y="4220" width="100" height="33" as="geometry" />
        </mxCell>
        <mxCell id="OA2I4mVcc6dnoSAsm5pp-94" value="Cashier" style="shape=umlActor;verticalLabelPosition=bottom;verticalAlign=top;html=1;outlineConnect=0;" vertex="1" parent="1">
          <mxGeometry x="440" y="4115" width="30" height="60" as="geometry" />
        </mxCell>
        <mxCell id="OA2I4mVcc6dnoSAsm5pp-96" value="FC68439" style="text;html=1;align=center;verticalAlign=middle;whiteSpace=wrap;rounded=0;" vertex="1" parent="1">
          <mxGeometry x="330" y="4110" width="60" height="30" as="geometry" />
        </mxCell>
        <mxCell id="OA2I4mVcc6dnoSAsm5pp-102" style="edgeStyle=orthogonalEdgeStyle;rounded=0;orthogonalLoop=1;jettySize=auto;html=1;" edge="1" parent="1" source="OA2I4mVcc6dnoSAsm5pp-97">
          <mxGeometry relative="1" as="geometry">
            <mxPoint x="710" y="4170" as="targetPoint" />
          </mxGeometry>
        </mxCell>
        <mxCell id="OA2I4mVcc6dnoSAsm5pp-97" value="&lt;div&gt;Query - Sorgu: Filtering&lt;/div&gt;&lt;div&gt;&lt;br&gt;&lt;/div&gt;Database: Bring me the accidents of person FC68439" style="text;html=1;align=center;verticalAlign=middle;whiteSpace=wrap;rounded=0;" vertex="1" parent="1">
          <mxGeometry x="523" y="4110" width="98" height="110" as="geometry" />
        </mxCell>
        <mxCell id="OA2I4mVcc6dnoSAsm5pp-98" value="Database" style="shape=cylinder3;whiteSpace=wrap;html=1;boundedLbl=1;backgroundOutline=1;size=15;" vertex="1" parent="1">
          <mxGeometry x="712" y="4080" width="60" height="220" as="geometry" />
        </mxCell>
        <mxCell id="OA2I4mVcc6dnoSAsm5pp-99" value="FC243384" style="text;html=1;align=center;verticalAlign=middle;whiteSpace=wrap;rounded=0;" vertex="1" parent="1">
          <mxGeometry x="712" y="4110" width="60" height="30" as="geometry" />
        </mxCell>
        <mxCell id="OA2I4mVcc6dnoSAsm5pp-100" value="AB509854" style="text;html=1;align=center;verticalAlign=middle;whiteSpace=wrap;rounded=0;" vertex="1" parent="1">
          <mxGeometry x="712" y="4130" width="60" height="30" as="geometry" />
        </mxCell>
        <mxCell id="OA2I4mVcc6dnoSAsm5pp-101" value="FG549589" style="text;html=1;align=center;verticalAlign=middle;whiteSpace=wrap;rounded=0;" vertex="1" parent="1">
          <mxGeometry x="712" y="4150" width="60" height="30" as="geometry" />
        </mxCell>
        <mxCell id="OA2I4mVcc6dnoSAsm5pp-103" value="insurance price: 1500 AZN" style="text;html=1;align=center;verticalAlign=middle;whiteSpace=wrap;rounded=0;" vertex="1" parent="1">
          <mxGeometry x="340" y="4250" width="200" height="30" as="geometry" />
        </mxCell>
        <mxCell id="OA2I4mVcc6dnoSAsm5pp-105" value="mercedes" style="text;html=1;align=center;verticalAlign=middle;whiteSpace=wrap;rounded=0;" vertex="1" parent="1">
          <mxGeometry x="330" y="4210" width="60" height="30" as="geometry" />
        </mxCell>
        <mxCell id="OA2I4mVcc6dnoSAsm5pp-106" value="" style="endArrow=none;html=1;rounded=0;" edge="1" parent="1">
          <mxGeometry width="50" height="50" relative="1" as="geometry">
            <mxPoint x="450" y="4290" as="sourcePoint" />
            <mxPoint x="500" y="4240" as="targetPoint" />
          </mxGeometry>
        </mxCell>
        <mxCell id="OA2I4mVcc6dnoSAsm5pp-107" value="" style="endArrow=none;html=1;rounded=0;" edge="1" parent="1">
          <mxGeometry width="50" height="50" relative="1" as="geometry">
            <mxPoint x="500" y="4300" as="sourcePoint" />
            <mxPoint x="450" y="4240" as="targetPoint" />
          </mxGeometry>
        </mxCell>
      </root>
    </mxGraphModel>
  </diagram>
</mxfile>
